<?xml version="1.0" encoding="UTF-8"?>
<!DOCTYPE svg PUBLIC "-//W3C//DTD SVG 1.1//EN" "http://www.w3.org/Graphics/SVG/1.1/DTD/svg11.dtd">
<svg xmlns="http://www.w3.org/2000/svg" version="1.1" width="500px" height="500px" style="shape-rendering:geometricPrecision; text-rendering:geometricPrecision; image-rendering:optimizeQuality; fill-rule:evenodd; clip-rule:evenodd" xmlns:xlink="http://www.w3.org/1999/xlink">
<g><path style="opacity:1" fill="#7d71da" d="M 275.5,29.5 C 275.5,29.8333 275.5,30.1667 275.5,30.5C 256.83,30.3334 238.164,30.5001 219.5,31C 212.245,32.7655 204.911,33.9322 197.5,34.5C 206.834,31.613 216.5,29.7796 226.5,29C 242.865,28.2111 259.198,28.3778 275.5,29.5 Z"/></g>
<g><path style="opacity:1" fill="#7567ed" d="M 275.5,30.5 C 286.821,32.496 298.154,34.496 309.5,36.5C 314.117,39.9957 319.451,41.6623 325.5,41.5C 328.1,44.4603 331.433,45.7937 335.5,45.5C 335.414,46.4959 335.748,47.3292 336.5,48C 339.93,48.8812 343.263,50.0479 346.5,51.5C 347.386,52.325 347.719,53.325 347.5,54.5C 351.336,55.8845 355.336,56.8845 359.5,57.5C 359.833,57.5 360.167,57.5 360.5,57.5C 360.414,58.4959 360.748,59.3292 361.5,60C 364.378,61.5992 367.044,63.4325 369.5,65.5C 371.304,66.7681 373.304,67.4348 375.5,67.5C 382.732,71.7306 389.399,76.7306 395.5,82.5C 395.525,85.179 396.858,86.5123 399.5,86.5C 405.167,91.5 410.5,96.8333 415.5,102.5C 416.27,105.956 418.27,108.623 421.5,110.5C 421.5,111.5 421.5,112.5 421.5,113.5C 420.178,113.67 419.011,113.337 418,112.5C 417.735,114.651 416.735,116.318 415,117.5C 402.079,113.773 388.912,112.607 375.5,114C 385.22,114.872 394.886,116.206 404.5,118C 394.5,118.333 384.5,118.667 374.5,119C 373.944,119.383 373.611,119.883 373.5,120.5C 369.123,120.577 364.79,121.077 360.5,122C 352.898,124.033 345.565,126.533 338.5,129.5C 334.315,131.297 329.982,132.63 325.5,133.5C 323.095,133.866 320.762,134.533 318.5,135.5C 313.748,133.395 308.748,132.061 303.5,131.5C 303.586,130.504 303.252,129.671 302.5,129C 295.846,126.016 288.846,124.183 281.5,123.5C 278.578,121.469 275.245,120.302 271.5,120C 258.534,118.507 245.534,118.173 232.5,119C 227.461,119.814 222.794,121.314 218.5,123.5C 215.565,123.717 212.731,124.383 210,125.5C 208.624,125.684 207.791,126.351 207.5,127.5C 206.127,127.343 204.793,127.51 203.5,128C 201.404,128.737 199.737,129.903 198.5,131.5C 192.615,132.119 187.615,134.453 183.5,138.5C 182.508,138.328 181.842,138.662 181.5,139.5C 179.973,139.427 178.973,140.094 178.5,141.5C 176.973,141.427 175.973,142.094 175.5,143.5C 171.98,144.353 169.313,146.353 167.5,149.5C 166.167,149.5 165.5,150.167 165.5,151.5C 162.9,152.919 160.4,154.585 158,156.5C 153.874,160.78 150.374,165.446 147.5,170.5C 146.833,170.5 146.5,170.833 146.5,171.5C 144.554,172.035 143.554,173.368 143.5,175.5C 141.178,176.802 139.845,178.802 139.5,181.5C 138.28,183.282 137.614,185.282 137.5,187.5C 136.833,187.833 136.167,188.167 135.5,188.5C 131.963,191.245 130.296,194.912 130.5,199.5C 128.345,201.617 127.345,204.284 127.5,207.5C 127.167,207.5 126.833,207.5 126.5,207.5C 125.5,207.5 124.5,207.5 123.5,207.5C 124.652,212.499 122.985,215.999 118.5,218C 120.41,218.408 121.41,219.575 121.5,221.5C 121.071,225.236 119.738,228.569 117.5,231.5C 118.258,243.14 118.925,254.807 119.5,266.5C 118.178,266.67 117.011,266.337 116,265.5C 114.921,268.063 114.421,270.729 114.5,273.5C 113.5,274.833 112.5,276.167 111.5,277.5C 106.519,282.486 101.852,287.82 97.5,293.5C 94.7026,293.967 93.3692,295.633 93.5,298.5C 88.2546,305.324 83.2546,312.324 78.5,319.5C 76.9263,320.984 75.593,322.651 74.5,324.5C 72.5057,321.009 69.5057,319.509 65.5,320C 66.5634,321.188 67.8967,321.688 69.5,321.5C 70.5,324.167 71.5,326.833 72.5,329.5C 71.448,329.649 70.448,329.483 69.5,329C 70.2797,327.927 70.113,326.76 69,325.5C 66.0719,328.361 63.9053,331.694 62.5,335.5C 62.5565,336.737 63.0565,337.737 64,338.5C 64.9734,336.608 65.6401,334.608 66,332.5C 67.0113,331.663 68.1779,331.33 69.5,331.5C 66.9552,339.309 65.1219,347.309 64,355.5C 63.6667,355.167 63.3333,354.833 63,354.5C 62.6667,356.833 62.3333,359.167 62,361.5C 61.6174,362.056 61.1174,362.389 60.5,362.5C 60.0269,361.094 59.0269,360.427 57.5,360.5C 57.5,360.167 57.5,359.833 57.5,359.5C 56.7966,355.353 55.7966,351.353 54.5,347.5C 53.5,347.5 52.5,347.5 51.5,347.5C 51.1979,342.493 49.3645,338.16 46,334.5C 44.5619,331.179 44.3952,327.846 45.5,324.5C 44.5022,321.972 43.6689,321.972 43,324.5C 37.173,310.856 33.673,296.523 32.5,281.5C 30.6161,260.255 29.9494,238.921 30.5,217.5C 30.5,216.833 30.5,216.167 30.5,215.5C 32.1172,213.879 33.2838,211.879 34,209.5C 34.499,205.179 34.6657,200.846 34.5,196.5C 35.9238,194.485 36.5905,192.152 36.5,189.5C 37.9238,187.485 38.5905,185.152 38.5,182.5C 38.5,182.167 38.5,181.833 38.5,181.5C 39.4584,181.047 40.2917,180.381 41,179.5C 42.8371,174.993 44.0038,170.327 44.5,165.5C 46.0502,160.07 48.3836,155.07 51.5,150.5C 54.375,148.751 55.7083,146.085 55.5,142.5C 55.5,141.833 55.8333,141.5 56.5,141.5C 59.2046,138.176 62.3712,135.176 66,132.5C 66.9203,129.899 67.587,127.232 68,124.5C 70.944,123.277 73.444,121.444 75.5,119C 75.0426,118.586 74.7093,118.086 74.5,117.5C 75.6507,116.269 76.8173,116.269 78,117.5C 76.7916,114.005 77.625,111.005 80.5,108.5C 81.1667,108.833 81.8333,109.167 82.5,109.5C 83.4656,107.604 83.7989,105.604 83.5,103.5C 85.5661,101.909 87.8994,100.575 90.5,99.5C 91.7277,102.071 93.7277,103.405 96.5,103.5C 96.6495,102.448 96.4828,101.448 96,100.5C 94.3513,99.3523 92.8513,98.019 91.5,96.5C 93.8833,94.4141 96.3833,92.4141 99,90.5C 100.329,88.0147 101.829,85.6814 103.5,83.5C 106.81,81.8536 109.477,79.5203 111.5,76.5C 115.397,72.5395 119.731,69.0395 124.5,66C 127.727,63.8882 131.06,62.0549 134.5,60.5C 139.488,59.8181 144.488,58.6515 149.5,57C 149.833,56.6667 150.167,56.3333 150.5,56C 149.027,55.2904 148.36,54.1238 148.5,52.5C 150.849,50.659 153.515,49.3257 156.5,48.5C 161.232,48.3732 165.232,46.7065 168.5,43.5C 171.91,43.5429 175.243,43.0429 178.5,42C 181.099,40.205 183.766,38.705 186.5,37.5C 189.002,37.2505 191.502,36.9172 194,36.5C 195.681,36.3917 196.848,35.7251 197.5,34.5C 204.911,33.9322 212.245,32.7655 219.5,31C 238.164,30.5001 256.83,30.3334 275.5,30.5 Z"/></g>
<g><path style="opacity:1" fill="#8c81dc" d="M 275.5,30.5 C 275.5,30.1667 275.5,29.8333 275.5,29.5C 287.214,30.5754 298.548,32.9088 309.5,36.5C 298.154,34.496 286.821,32.496 275.5,30.5 Z"/></g>
<g><path style="opacity:0.961" fill="#867adc" d="M 197.5,34.5 C 196.848,35.7251 195.681,36.3917 194,36.5C 191.502,36.9172 189.002,37.2505 186.5,37.5C 189.854,35.7424 193.521,34.7424 197.5,34.5 Z"/></g>
<g><path style="opacity:1" fill="#8e80e1" d="M 309.5,36.5 C 315.172,37.3926 320.506,39.0592 325.5,41.5C 319.451,41.6623 314.117,39.9957 309.5,36.5 Z"/></g>
<g><path style="opacity:1" fill="#877ade" d="M 186.5,37.5 C 183.766,38.705 181.099,40.205 178.5,42C 175.243,43.0429 171.91,43.5429 168.5,43.5C 174.214,40.8985 180.214,38.8985 186.5,37.5 Z"/></g>
<g><path style="opacity:1" fill="#9084e0" d="M 325.5,41.5 C 329.127,42.3208 332.46,43.6541 335.5,45.5C 331.433,45.7937 328.1,44.4603 325.5,41.5 Z"/></g>
<g><path style="opacity:1" fill="#887bde" d="M 168.5,43.5 C 165.232,46.7065 161.232,48.3732 156.5,48.5C 160.203,46.3213 164.203,44.6546 168.5,43.5 Z"/></g>
<g><path style="opacity:1" fill="#8a7ede" d="M 335.5,45.5 C 344.097,48.465 352.097,52.465 359.5,57.5C 355.336,56.8845 351.336,55.8845 347.5,54.5C 347.719,53.325 347.386,52.325 346.5,51.5C 343.263,50.0479 339.93,48.8812 336.5,48C 335.748,47.3292 335.414,46.4959 335.5,45.5 Z"/></g>
<g><path style="opacity:1" fill="#7c6ee5" d="M 148.5,52.5 C 148.36,54.1238 149.027,55.2904 150.5,56C 150.167,56.3333 149.833,56.6667 149.5,57C 144.488,58.6515 139.488,59.8181 134.5,60.5C 138.833,57.331 143.5,54.6643 148.5,52.5 Z"/></g>
<g><path style="opacity:1" fill="#8b80da" d="M 360.5,57.5 C 365.709,60.5984 370.709,63.9317 375.5,67.5C 373.304,67.4348 371.304,66.7681 369.5,65.5C 367.044,63.4325 364.378,61.5992 361.5,60C 360.748,59.3292 360.414,58.4959 360.5,57.5 Z"/></g>
<g><path style="opacity:1" fill="#867bd7" d="M 111.5,76.5 C 109.477,79.5203 106.81,81.8536 103.5,83.5C 105.549,80.4503 108.216,78.117 111.5,76.5 Z"/></g>
<g><path style="opacity:1" fill="#9586de" d="M 395.5,82.5 C 397.167,83.5 398.5,84.8333 399.5,86.5C 396.858,86.5123 395.525,85.179 395.5,82.5 Z"/></g>
<g><path style="opacity:1" fill="#7d6fe4" d="M 103.5,83.5 C 101.829,85.6814 100.329,88.0147 99,90.5C 96.3833,92.4141 93.8833,94.4141 91.5,96.5C 92.8513,98.019 94.3513,99.3523 96,100.5C 96.4828,101.448 96.6495,102.448 96.5,103.5C 93.7277,103.405 91.7277,102.071 90.5,99.5C 87.8994,100.575 85.5661,101.909 83.5,103.5C 83.369,102.761 83.5357,102.094 84,101.5C 90.0899,94.9043 96.5899,88.9043 103.5,83.5 Z"/></g>
<g><path style="opacity:1" fill="#9185db" d="M 415.5,102.5 C 417.878,104.878 419.878,107.545 421.5,110.5C 418.27,108.623 416.27,105.956 415.5,102.5 Z"/></g>
<g><path style="opacity:1" fill="#7568e5" d="M 421.5,110.5 C 424.556,112.949 426.889,115.949 428.5,119.5C 428.643,121.262 428.309,122.929 427.5,124.5C 431.615,125.7 433.949,128.367 434.5,132.5C 432.058,130.122 429.058,128.455 425.5,127.5C 421.63,125.983 417.796,124.316 414,122.5C 411.901,121.713 409.734,121.38 407.5,121.5C 405.735,120.539 403.735,120.205 401.5,120.5C 392.295,119.208 382.962,119.208 373.5,120.5C 373.611,119.883 373.944,119.383 374.5,119C 384.5,118.667 394.5,118.333 404.5,118C 394.886,116.206 385.22,114.872 375.5,114C 388.912,112.607 402.079,113.773 415,117.5C 416.735,116.318 417.735,114.651 418,112.5C 419.011,113.337 420.178,113.67 421.5,113.5C 421.5,112.5 421.5,111.5 421.5,110.5 Z"/></g>
<g><path style="opacity:1" fill="#8072e1" d="M 83.5,103.5 C 83.7989,105.604 83.4656,107.604 82.5,109.5C 81.8333,109.167 81.1667,108.833 80.5,108.5C 77.625,111.005 76.7916,114.005 78,117.5C 76.8173,116.269 75.6507,116.269 74.5,117.5C 74.7093,118.086 75.0426,118.586 75.5,119C 73.444,121.444 70.944,123.277 68,124.5C 67.587,127.232 66.9203,129.899 66,132.5C 62.3712,135.176 59.2046,138.176 56.5,141.5C 63.5378,127.419 72.5378,114.752 83.5,103.5 Z"/></g>
<g><path style="opacity:1" fill="#5a79df" d="M 281.5,123.5 C 280.167,123.5 278.833,123.5 277.5,123.5C 275.898,121.926 273.898,121.259 271.5,121.5C 267.785,121.577 264.119,121.244 260.5,120.5C 252.344,119.343 244.01,119.177 235.5,120C 233.942,120.21 232.609,120.71 231.5,121.5C 226.964,121.433 222.631,122.099 218.5,123.5C 222.794,121.314 227.461,119.814 232.5,119C 245.534,118.173 258.534,118.507 271.5,120C 275.245,120.302 278.578,121.469 281.5,123.5 Z"/></g>
<g><path style="opacity:1" fill="#38a1d5" d="M 260.5,120.5 C 250.815,120.422 241.148,120.755 231.5,121.5C 232.609,120.71 233.942,120.21 235.5,120C 244.01,119.177 252.344,119.343 260.5,120.5 Z"/></g>
<g><path style="opacity:1" fill="#0a0623" d="M 401.5,120.5 C 403.735,120.205 405.735,120.539 407.5,121.5C 395.484,121.39 383.484,121.723 371.5,122.5C 373.292,121.691 375.292,121.191 377.5,121C 385.493,120.5 393.493,120.334 401.5,120.5 Z"/></g>
<g><path style="opacity:1" fill="#010205" d="M 407.5,121.5 C 409.734,121.38 411.901,121.713 414,122.5C 417.796,124.316 421.63,125.983 425.5,127.5C 427.909,129.902 429.909,132.569 431.5,135.5C 433.788,143.326 434.788,151.326 434.5,159.5C 431.431,162.331 429.931,165.997 430,170.5C 427.318,172.377 426.818,174.71 428.5,177.5C 428.075,180.119 427.075,182.453 425.5,184.5C 422.252,189.326 419.252,194.326 416.5,199.5C 413.836,201.484 412.169,204.151 411.5,207.5C 408.757,209.239 406.757,211.573 405.5,214.5C 403.122,216.878 401.122,219.545 399.5,222.5C 393.796,227.594 388.796,233.261 384.5,239.5C 382.833,240.5 381.5,241.833 380.5,243.5C 379.833,243.5 379.5,243.833 379.5,244.5C 378.5,244.833 377.833,245.5 377.5,246.5C 325.008,296.235 266.008,336.235 200.5,366.5C 199.391,366.557 198.391,366.89 197.5,367.5C 186.059,372.476 174.393,376.643 162.5,380C 161.944,380.383 161.611,380.883 161.5,381.5C 161.167,381.5 160.833,381.5 160.5,381.5C 155.912,382.751 151.245,383.751 146.5,384.5C 136.793,385.671 127.126,387.171 117.5,389C 110.174,389.5 102.841,389.666 95.5,389.5C 93.2646,389.795 91.2646,389.461 89.5,388.5C 87.3155,386.415 84.6489,385.415 81.5,385.5C 79.9505,384.559 78.2838,383.893 76.5,383.5C 70.7938,378.421 67.4605,372.088 66.5,364.5C 66.447,358.804 66.7803,353.138 67.5,347.5C 67.5,346.833 67.5,346.167 67.5,345.5C 69.8966,342.691 71.2299,339.358 71.5,335.5C 71.7036,333.315 72.3702,331.315 73.5,329.5C 75.6744,326.485 77.3411,323.151 78.5,319.5C 83.2546,312.324 88.2546,305.324 93.5,298.5C 94.803,296.858 96.1363,295.191 97.5,293.5C 101.852,287.82 106.519,282.486 111.5,277.5C 114.075,276.272 116.408,274.605 118.5,272.5C 119.86,273.18 121.193,273.847 122.5,274.5C 124.03,279.093 125.364,283.76 126.5,288.5C 126.5,289.167 126.5,289.833 126.5,290.5C 123.411,292.75 121.411,295.75 120.5,299.5C 118.738,300.262 117.738,301.596 117.5,303.5C 112.832,310.51 109.499,318.177 107.5,326.5C 106.382,332.084 106.215,337.751 107,343.5C 108.306,346.621 110.14,349.287 112.5,351.5C 116.827,356.816 122.494,359.483 129.5,359.5C 133.319,360.166 137.319,360.499 141.5,360.5C 147.417,360.695 153.084,360.029 158.5,358.5C 163.22,357.371 167.887,356.038 172.5,354.5C 174.099,354.768 175.432,354.434 176.5,353.5C 247.929,329.702 309.429,290.368 361,235.5C 365.763,230.578 369.93,225.244 373.5,219.5C 375.104,218.713 375.771,217.38 375.5,215.5C 378.449,213.627 380.449,210.961 381.5,207.5C 383.074,206.016 384.407,204.349 385.5,202.5C 388.615,199.532 390.615,195.866 391.5,191.5C 391.693,188.692 392.36,186.025 393.5,183.5C 394.952,181.152 395.618,178.486 395.5,175.5C 395.493,173.631 395.16,171.964 394.5,170.5C 394.402,166.248 393.068,162.581 390.5,159.5C 387.053,154.774 382.386,152.108 376.5,151.5C 375.737,150.732 374.737,150.232 373.5,150C 365.173,149.5 356.84,149.334 348.5,149.5C 344.837,149.952 341.17,150.452 337.5,151C 336.944,151.383 336.611,151.883 336.5,152.5C 330.772,148.108 324.772,144.108 318.5,140.5C 318.167,139.5 317.5,138.833 316.5,138.5C 319.591,137.023 322.591,135.356 325.5,133.5C 329.982,132.63 334.315,131.297 338.5,129.5C 349.241,126.284 360.241,123.951 371.5,122.5C 383.484,121.723 395.484,121.39 407.5,121.5 Z"/></g>
<g><path style="opacity:1" fill="#3aafda" d="M 271.5,121.5 C 273.898,121.259 275.898,121.926 277.5,123.5C 275.102,123.741 273.102,123.074 271.5,121.5 Z"/></g>
<g><path style="opacity:1" fill="#1fded4" d="M 260.5,120.5 C 264.119,121.244 267.785,121.577 271.5,121.5C 273.102,123.074 275.102,123.741 277.5,123.5C 278.833,123.5 280.167,123.5 281.5,123.5C 288.866,125.85 296.199,128.516 303.5,131.5C 307.639,134.072 311.973,136.405 316.5,138.5C 317.5,138.833 318.167,139.5 318.5,140.5C 315.833,140.5 313.167,140.5 310.5,140.5C 310.5,139.167 310.5,137.833 310.5,136.5C 308.088,136.669 305.921,136.003 304,134.5C 302.185,136.848 300.018,137.515 297.5,136.5C 298.729,135.719 300.062,135.219 301.5,135C 299.091,133.799 297.091,132.133 295.5,130C 293.051,129.275 290.717,128.275 288.5,127C 274.758,124.656 260.925,123.156 247,122.5C 237.473,122.986 227.973,123.653 218.5,124.5C 218.5,124.167 218.5,123.833 218.5,123.5C 222.631,122.099 226.964,121.433 231.5,121.5C 241.148,120.755 250.815,120.422 260.5,120.5 Z"/></g>
<g><path style="opacity:1" fill="#3daed8" d="M 218.5,123.5 C 218.5,123.833 218.5,124.167 218.5,124.5C 214.904,125.8 211.237,126.8 207.5,127.5C 207.791,126.351 208.624,125.684 210,125.5C 212.731,124.383 215.565,123.717 218.5,123.5 Z"/></g>
<g><path style="opacity:1" fill="#5d54a9" d="M 401.5,120.5 C 393.493,120.334 385.493,120.5 377.5,121C 375.292,121.191 373.292,121.691 371.5,122.5C 360.241,123.951 349.241,126.284 338.5,129.5C 345.565,126.533 352.898,124.033 360.5,122C 364.79,121.077 369.123,120.577 373.5,120.5C 382.962,119.208 392.295,119.208 401.5,120.5 Z"/></g>
<g><path style="opacity:1" fill="#01ecc8" d="M 318.5,140.5 C 324.772,144.108 330.772,148.108 336.5,152.5C 337.167,153.167 337.833,153.833 338.5,154.5C 338.833,155.167 339.167,155.833 339.5,156.5C 342.77,161.44 346.77,165.773 351.5,169.5C 352.08,171.749 353.413,173.415 355.5,174.5C 356.08,176.749 357.413,178.415 359.5,179.5C 359.66,181.153 360.326,182.486 361.5,183.5C 361.738,185.404 362.738,186.738 364.5,187.5C 365.242,189.98 366.242,192.313 367.5,194.5C 367.366,196.292 367.699,197.958 368.5,199.5C 368.512,203.166 369.846,206.166 372.5,208.5C 372.323,212.234 372.656,215.901 373.5,219.5C 369.93,225.244 365.763,230.578 361,235.5C 309.429,290.368 247.929,329.702 176.5,353.5C 174.315,353.296 172.315,352.63 170.5,351.5C 168.761,348.757 166.427,346.757 163.5,345.5C 160.5,342.167 157.5,338.833 154.5,335.5C 153.323,332.962 151.656,330.629 149.5,328.5C 148.054,326.382 147.387,324.049 147.5,321.5C 146.5,321.5 145.5,321.5 144.5,321.5C 142.986,318.302 141.652,314.968 140.5,311.5C 137.863,309.027 135.53,306.361 133.5,303.5C 132.833,303.167 132.167,302.833 131.5,302.5C 131.5,302.167 131.5,301.833 131.5,301.5C 130.163,297.155 128.829,292.822 127.5,288.5C 125.824,280.603 124.324,272.603 123,264.5C 122.5,255.173 122.334,245.839 122.5,236.5C 123.08,232.19 123.414,227.857 123.5,223.5C 124.167,222.167 124.833,220.833 125.5,219.5C 128.873,208.733 132.873,198.066 137.5,187.5C 138.735,187.721 139.735,188.388 140.5,189.5C 141.08,187.363 142.08,185.53 143.5,184C 142.941,183.275 142.608,182.442 142.5,181.5C 145.045,177.526 147.378,173.526 149.5,169.5C 154.52,163.151 159.853,157.151 165.5,151.5C 165.5,150.167 166.167,149.5 167.5,149.5C 168.609,149.443 169.609,149.11 170.5,148.5C 174.612,147.204 177.945,144.871 180.5,141.5C 180.833,140.833 181.167,140.167 181.5,139.5C 181.842,138.662 182.508,138.328 183.5,138.5C 186.657,138.921 188.99,137.755 190.5,135C 193.476,134.295 196.142,133.129 198.5,131.5C 202.251,131.486 205.251,130.153 207.5,127.5C 211.237,126.8 214.904,125.8 218.5,124.5C 227.973,123.653 237.473,122.986 247,122.5C 260.925,123.156 274.758,124.656 288.5,127C 290.717,128.275 293.051,129.275 295.5,130C 297.091,132.133 299.091,133.799 301.5,135C 300.062,135.219 298.729,135.719 297.5,136.5C 300.018,137.515 302.185,136.848 304,134.5C 305.921,136.003 308.088,136.669 310.5,136.5C 310.5,137.833 310.5,139.167 310.5,140.5C 313.167,140.5 315.833,140.5 318.5,140.5 Z"/></g>
<g><path style="opacity:1" fill="#597fdb" d="M 281.5,123.5 C 288.846,124.183 295.846,126.016 302.5,129C 303.252,129.671 303.586,130.504 303.5,131.5C 296.199,128.516 288.866,125.85 281.5,123.5 Z"/></g>
<g><path style="opacity:1" fill="#2cd2d7" d="M 207.5,127.5 C 205.251,130.153 202.251,131.486 198.5,131.5C 199.737,129.903 201.404,128.737 203.5,128C 204.793,127.51 206.127,127.343 207.5,127.5 Z"/></g>
<g><path style="opacity:1" fill="#36bfdb" d="M 198.5,131.5 C 196.142,133.129 193.476,134.295 190.5,135C 188.99,137.755 186.657,138.921 183.5,138.5C 187.615,134.453 192.615,132.119 198.5,131.5 Z"/></g>
<g><path style="opacity:1" fill="#6078d4" d="M 303.5,131.5 C 308.748,132.061 313.748,133.395 318.5,135.5C 320.762,134.533 323.095,133.866 325.5,133.5C 322.591,135.356 319.591,137.023 316.5,138.5C 311.973,136.405 307.639,134.072 303.5,131.5 Z"/></g>
<g><path style="opacity:1" fill="#786bdb" d="M 428.5,119.5 C 435.749,128.32 441.749,137.986 446.5,148.5C 444.376,147.969 442.876,146.635 442,144.5C 441.107,145.711 440.274,145.711 439.5,144.5C 440.889,140.378 439.722,137.045 436,134.5C 436.453,144.145 436.453,153.812 436,163.5C 435.392,165.066 434.558,166.4 433.5,167.5C 433.833,164.833 434.167,162.167 434.5,159.5C 435.652,154.015 435.818,148.349 435,142.5C 434.856,139.558 433.689,137.224 431.5,135.5C 429.909,132.569 427.909,129.902 425.5,127.5C 429.058,128.455 432.058,130.122 434.5,132.5C 433.949,128.367 431.615,125.7 427.5,124.5C 428.309,122.929 428.643,121.262 428.5,119.5 Z"/></g>
<g><path style="opacity:1" fill="#41a9dc" d="M 181.5,139.5 C 181.167,140.167 180.833,140.833 180.5,141.5C 179.833,141.5 179.167,141.5 178.5,141.5C 178.973,140.094 179.973,139.427 181.5,139.5 Z"/></g>
<g><path style="opacity:1" fill="#110e2a" d="M 431.5,135.5 C 433.689,137.224 434.856,139.558 435,142.5C 435.818,148.349 435.652,154.015 434.5,159.5C 434.788,151.326 433.788,143.326 431.5,135.5 Z"/></g>
<g><path style="opacity:1" fill="#26d7d8" d="M 178.5,141.5 C 179.167,141.5 179.833,141.5 180.5,141.5C 177.945,144.871 174.612,147.204 170.5,148.5C 171.973,146.605 173.64,144.939 175.5,143.5C 175.973,142.094 176.973,141.427 178.5,141.5 Z"/></g>
<g><path style="opacity:1" fill="#8a7ede" d="M 55.5,142.5 C 55.7083,146.085 54.375,148.751 51.5,150.5C 52.3257,147.515 53.659,144.849 55.5,142.5 Z"/></g>
<g><path style="opacity:1" fill="#41a1da" d="M 175.5,143.5 C 173.64,144.939 171.973,146.605 170.5,148.5C 169.609,149.11 168.609,149.443 167.5,149.5C 169.313,146.353 171.98,144.353 175.5,143.5 Z"/></g>
<g><path style="opacity:1" fill="#7469d2" d="M 348.5,149.5 C 356.84,149.334 365.173,149.5 373.5,150C 374.737,150.232 375.737,150.732 376.5,151.5C 368.189,150.501 359.856,150.335 351.5,151C 347.063,151.517 343.063,152.683 339.5,154.5C 339.167,154.5 338.833,154.5 338.5,154.5C 338.5,153.5 338.5,152.5 338.5,151.5C 342.16,151.841 345.493,151.175 348.5,149.5 Z"/></g>
<g><path style="opacity:1" fill="#434487" d="M 348.5,149.5 C 345.493,151.175 342.16,151.841 338.5,151.5C 338.5,152.5 338.5,153.5 338.5,154.5C 337.833,153.833 337.167,153.167 336.5,152.5C 336.611,151.883 336.944,151.383 337.5,151C 341.17,150.452 344.837,149.952 348.5,149.5 Z"/></g>
<g><path style="opacity:1" fill="#7467ec" d="M 376.5,151.5 C 382.386,152.108 387.053,154.774 390.5,159.5C 391.926,164.185 392.593,169.018 392.5,174C 392.278,179.918 391.611,185.751 390.5,191.5C 388.633,195.112 386.966,198.779 385.5,202.5C 384.407,204.349 383.074,206.016 381.5,207.5C 378.833,207.5 376.167,207.5 373.5,207.5C 373.88,205.302 373.213,203.635 371.5,202.5C 371.167,201.5 370.5,200.833 369.5,200.5C 369.5,200.167 369.5,199.833 369.5,199.5C 369.88,197.302 369.213,195.635 367.5,194.5C 366.242,192.313 365.242,189.98 364.5,187.5C 364.262,185.596 363.262,184.262 361.5,183.5C 361.489,181.453 361.156,179.453 360.5,177.5C 360.818,176.353 361.484,175.519 362.5,175C 361.216,174.316 360.049,174.483 359,175.5C 358.755,173.337 357.755,171.67 356,170.5C 355.667,168.5 355.333,166.5 355,164.5C 354.612,165.428 353.945,166.095 353,166.5C 349.276,164.388 347.776,161.388 348.5,157.5C 347.158,159.005 345.492,159.672 343.5,159.5C 342.92,157.251 341.587,155.585 339.5,154.5C 343.063,152.683 347.063,151.517 351.5,151C 359.856,150.335 368.189,150.501 376.5,151.5 Z"/></g>
<g><path style="opacity:1" fill="#7467ed" d="M 446.5,148.5 C 450.122,154.018 452.789,160.018 454.5,166.5C 456.303,173.42 458.636,180.087 461.5,186.5C 461.89,189.839 462.39,193.173 463,196.5C 463.383,197.056 463.883,197.389 464.5,197.5C 465.949,207.477 467.449,217.477 469,227.5C 469.5,242.496 469.667,257.496 469.5,272.5C 469.5,273.833 469.5,275.167 469.5,276.5C 468.034,277.347 467.2,278.68 467,280.5C 465.838,287.469 465.004,294.469 464.5,301.5C 464.5,302.167 464.5,302.833 464.5,303.5C 463.069,303.881 462.236,304.881 462,306.5C 461.751,305.376 461.251,304.376 460.5,303.5C 460.167,304 459.833,304.5 459.5,305C 460.018,306.626 460.352,308.293 460.5,310C 459.101,315.095 458.101,320.262 457.5,325.5C 455.946,326.914 454.612,328.581 453.5,330.5C 451.572,336.261 449.572,341.261 447.5,345.5C 445.981,346.851 444.648,348.351 443.5,350C 443.957,350.414 444.291,350.914 444.5,351.5C 442.896,353.179 442.229,355.179 442.5,357.5C 442.443,358.609 442.11,359.609 441.5,360.5C 440.022,360.238 438.689,360.571 437.5,361.5C 438.609,362.965 438.109,363.965 436,364.5C 434.872,366.345 434.372,368.345 434.5,370.5C 434.267,372.062 433.6,373.395 432.5,374.5C 431.325,374.719 430.325,374.386 429.5,373.5C 428.939,371.574 428.773,369.574 429,367.5C 427.365,366.151 425.865,366.318 424.5,368C 425.687,369.019 426.687,370.186 427.5,371.5C 425.309,372.881 423.976,374.881 423.5,377.5C 422.264,378.246 420.93,378.579 419.5,378.5C 420.211,375.136 419.044,372.803 416,371.5C 415.833,371.833 415.667,372.167 415.5,372.5C 418.048,376.898 419.381,381.398 419.5,386C 419.012,388.761 418.012,391.594 416.5,394.5C 412.643,394.69 410.976,396.69 411.5,400.5C 406.756,400.962 405.756,399.462 408.5,396C 404.834,395.61 404.668,394.443 408,392.5C 410.173,395.277 410.673,395.11 409.5,392C 406.412,391.412 404.745,392.745 404.5,396C 405.216,398.792 405.549,401.626 405.5,404.5C 404.127,404.343 402.793,404.51 401.5,405C 401.833,405.333 402.167,405.667 402.5,406C 400.808,407.401 400.141,409.234 400.5,411.5C 399.127,411.343 397.793,411.51 396.5,412C 394.915,414.069 393.581,416.236 392.5,418.5C 390.738,418.643 389.071,418.309 387.5,417.5C 387.446,418.687 387.113,420.02 386.5,421.5C 384.868,420.703 383.368,419.703 382,418.5C 379.209,419.362 377.042,418.362 375.5,415.5C 373.955,414.548 372.288,414.215 370.5,414.5C 371.543,418.514 374.209,420.18 378.5,419.5C 378.579,420.93 378.246,422.264 377.5,423.5C 378.025,424.192 378.692,424.692 379.5,425C 377.5,426 375.5,427 373.5,428C 374.022,428.561 374.355,429.228 374.5,430C 372.845,431.301 371.511,432.801 370.5,434.5C 366.677,437.916 362.343,440.582 357.5,442.5C 353.355,440.747 349.688,441.58 346.5,445C 347.171,445.986 347.171,447.153 346.5,448.5C 344.396,448.201 342.396,448.534 340.5,449.5C 334.94,451.566 329.94,454.232 325.5,457.5C 319.544,457.647 314.211,459.314 309.5,462.5C 304.125,462.218 298.958,462.885 294,464.5C 292.106,464.42 290.273,464.087 288.5,463.5C 287.614,464.325 287.281,465.325 287.5,466.5C 283.768,466.984 280.101,467.651 276.5,468.5C 257.473,468.782 238.473,468.449 219.5,467.5C 212.041,466.672 204.708,465.672 197.5,464.5C 194.191,462.63 190.525,461.63 186.5,461.5C 178.903,458.045 171.237,454.879 163.5,452C 164.167,451.667 164.833,451.333 165.5,451C 162.518,450.502 159.518,450.335 156.5,450.5C 153.515,449.674 150.849,448.341 148.5,446.5C 148.586,445.504 148.252,444.671 147.5,444C 146.167,443.667 144.833,443.333 143.5,443C 140.666,440.421 137.666,438.087 134.5,436C 135.5,435.667 136.5,435.333 137.5,435C 133.685,432.14 129.352,430.807 124.5,431C 123.692,429.294 122.359,428.461 120.5,428.5C 120.5,427.167 120.5,425.833 120.5,424.5C 122.144,424.286 123.644,424.62 125,425.5C 124.886,418.088 122.719,417.588 118.5,424C 117.552,424.483 116.552,424.649 115.5,424.5C 115.657,423.127 115.49,421.793 115,420.5C 113.644,421.38 112.144,421.714 110.5,421.5C 108.761,418.757 106.427,416.757 103.5,415.5C 103.167,415.5 102.833,415.5 102.5,415.5C 101.986,413.302 100.986,411.302 99.5,409.5C 100.603,409.002 101.603,408.669 102.5,408.5C 101.905,406.107 100.572,404.273 98.5,403C 99.7588,402.077 101.092,401.243 102.5,400.5C 101.833,400.167 101.167,399.833 100.5,399.5C 96.7426,400.828 93.7426,402.161 91.5,403.5C 91.4506,400.901 90.4506,398.734 88.5,397C 88.9574,396.586 89.2907,396.086 89.5,395.5C 86.8697,394.619 84.203,393.952 81.5,393.5C 81.1119,391.315 80.1119,389.482 78.5,388C 78.8333,387.5 79.1667,387 79.5,386.5C 81.6179,387.946 83.9512,388.613 86.5,388.5C 88.4746,390.09 90.8079,391.257 93.5,392C 103.833,392.667 114.167,392.667 124.5,392C 124.167,391.667 123.833,391.333 123.5,391C 128.042,390.254 132.542,390.421 137,391.5C 139.934,389.053 142.934,389.053 146,391.5C 147.404,391.491 148.57,390.991 149.5,390C 147.833,389.667 146.167,389.333 144.5,389C 149.745,386.858 155.079,385.358 160.5,384.5C 160.5,383.5 160.5,382.5 160.5,381.5C 160.833,381.5 161.167,381.5 161.5,381.5C 163.527,381.662 165.527,381.495 167.5,381C 172.202,378.934 176.869,376.934 181.5,375C 185.528,374.608 189.528,374.108 193.5,373.5C 193.5,372.5 193.5,371.5 193.5,370.5C 195.924,370.192 198.257,370.526 200.5,371.5C 199.106,372.687 199.273,373.354 201,373.5C 203.099,372.713 205.266,372.38 207.5,372.5C 209.435,373.15 211.435,373.483 213.5,373.5C 215.302,374.458 217.302,375.125 219.5,375.5C 223.911,377.13 228.578,378.13 233.5,378.5C 233.918,379.222 234.584,379.722 235.5,380C 241.5,380.167 247.5,380.333 253.5,380.5C 259.872,380.496 265.872,379.829 271.5,378.5C 271.5,378.167 271.5,377.833 271.5,377.5C 274.807,376.949 278.14,376.616 281.5,376.5C 283.199,376.66 284.866,376.494 286.5,376C 288.596,375.263 290.263,374.097 291.5,372.5C 293.898,372.741 295.898,372.074 297.5,370.5C 300.313,370.975 302.313,369.975 303.5,367.5C 307.019,367.741 309.685,366.407 311.5,363.5C 312.5,362.833 313.5,362.167 314.5,361.5C 318.25,360.589 321.25,358.589 323.5,355.5C 326.198,355.155 328.198,353.822 329.5,351.5C 329.842,350.662 330.508,350.328 331.5,350.5C 334.109,349.557 336.109,347.89 337.5,345.5C 340.674,344.493 343.007,342.493 344.5,339.5C 346.942,336.271 349.608,333.271 352.5,330.5C 353.5,330.5 354.5,330.5 355.5,330.5C 355.687,328.436 356.187,326.436 357,324.5C 358.011,323.663 359.178,323.33 360.5,323.5C 360.287,320.549 360.954,317.882 362.5,315.5C 364.548,311.696 366.215,307.696 367.5,303.5C 370.137,301.518 371.47,298.852 371.5,295.5C 374.208,292.044 375.541,288.044 375.5,283.5C 375.5,283.167 375.5,282.833 375.5,282.5C 376.924,280.485 377.59,278.152 377.5,275.5C 380.035,265.125 381.035,254.459 380.5,243.5C 381.5,241.833 382.833,240.5 384.5,239.5C 387.839,236.494 391.172,233.494 394.5,230.5C 395.167,230.833 395.833,231.167 396.5,231.5C 397.185,228.322 398.185,225.322 399.5,222.5C 401.117,223.038 402.784,223.371 404.5,223.5C 404.704,220.482 405.037,217.482 405.5,214.5C 408.243,212.761 410.243,210.427 411.5,207.5C 414.622,205.874 416.288,203.208 416.5,199.5C 421.224,195.749 424.224,190.749 425.5,184.5C 427.075,182.453 428.075,180.119 428.5,177.5C 429.619,173.929 431.285,170.596 433.5,167.5C 434.558,166.4 435.392,165.066 436,163.5C 436.453,153.812 436.453,144.145 436,134.5C 439.722,137.045 440.889,140.378 439.5,144.5C 440.274,145.711 441.107,145.711 442,144.5C 442.876,146.635 444.376,147.969 446.5,148.5 Z"/></g>
<g><path style="opacity:1" fill="#40a7da" d="M 165.5,151.5 C 159.853,157.151 154.52,163.151 149.5,169.5C 148.833,169.833 148.167,170.167 147.5,170.5C 150.374,165.446 153.874,160.78 158,156.5C 160.4,154.585 162.9,152.919 165.5,151.5 Z"/></g>
<g><path style="opacity:1" fill="#4a89d7" d="M 338.5,154.5 C 338.833,154.5 339.167,154.5 339.5,154.5C 341.587,155.585 342.92,157.251 343.5,159.5C 342.167,158.5 340.833,157.5 339.5,156.5C 339.167,155.833 338.833,155.167 338.5,154.5 Z"/></g>
<g><path style="opacity:1" fill="#2fc9d9" d="M 339.5,156.5 C 340.833,157.5 342.167,158.5 343.5,159.5C 346.57,162.564 349.237,165.897 351.5,169.5C 346.77,165.773 342.77,161.44 339.5,156.5 Z"/></g>
<g><path style="opacity:1" fill="#6872e5" d="M 361.5,183.5 C 360.326,182.486 359.66,181.153 359.5,179.5C 358.92,177.251 357.587,175.585 355.5,174.5C 354.92,172.251 353.587,170.585 351.5,169.5C 349.237,165.897 346.57,162.564 343.5,159.5C 345.492,159.672 347.158,159.005 348.5,157.5C 347.776,161.388 349.276,164.388 353,166.5C 353.945,166.095 354.612,165.428 355,164.5C 355.333,166.5 355.667,168.5 356,170.5C 357.755,171.67 358.755,173.337 359,175.5C 360.049,174.483 361.216,174.316 362.5,175C 361.484,175.519 360.818,176.353 360.5,177.5C 361.156,179.453 361.489,181.453 361.5,183.5 Z"/></g>
<g><path style="opacity:1" fill="#8f83de" d="M 454.5,166.5 C 458.002,172.669 460.335,179.335 461.5,186.5C 458.636,180.087 456.303,173.42 454.5,166.5 Z"/></g>
<g><path style="opacity:1" fill="#39b5dc" d="M 351.5,169.5 C 353.587,170.585 354.92,172.251 355.5,174.5C 353.413,173.415 352.08,171.749 351.5,169.5 Z"/></g>
<g><path style="opacity:1" fill="#0a051e" d="M 434.5,159.5 C 434.167,162.167 433.833,164.833 433.5,167.5C 431.285,170.596 429.619,173.929 428.5,177.5C 426.818,174.71 427.318,172.377 430,170.5C 429.931,165.997 431.431,162.331 434.5,159.5 Z"/></g>
<g><path style="opacity:1" fill="#8c7fe0" d="M 44.5,165.5 C 44.0038,170.327 42.8371,174.993 41,179.5C 40.2917,180.381 39.4584,181.047 38.5,181.5C 39.9325,175.859 41.9325,170.525 44.5,165.5 Z"/></g>
<g><path style="opacity:1" fill="#4193d5" d="M 146.5,171.5 C 145.974,173.23 144.974,174.564 143.5,175.5C 143.554,173.368 144.554,172.035 146.5,171.5 Z"/></g>
<g><path style="opacity:1" fill="#6b61c1" d="M 390.5,159.5 C 393.068,162.581 394.402,166.248 394.5,170.5C 394.533,174.869 394.2,179.202 393.5,183.5C 392.36,186.025 391.693,188.692 391.5,191.5C 391.167,191.5 390.833,191.5 390.5,191.5C 391.611,185.751 392.278,179.918 392.5,174C 392.593,169.018 391.926,164.185 390.5,159.5 Z"/></g>
<g><path style="opacity:1" fill="#41a2dc" d="M 355.5,174.5 C 357.587,175.585 358.92,177.251 359.5,179.5C 357.413,178.415 356.08,176.749 355.5,174.5 Z"/></g>
<g><path style="opacity:1" fill="#0c082e" d="M 394.5,170.5 C 395.16,171.964 395.493,173.631 395.5,175.5C 395.618,178.486 394.952,181.152 393.5,183.5C 394.2,179.202 394.533,174.869 394.5,170.5 Z"/></g>
<g><path style="opacity:1" fill="#4594da" d="M 143.5,175.5 C 142.66,177.853 141.326,179.853 139.5,181.5C 139.845,178.802 141.178,176.802 143.5,175.5 Z"/></g>
<g><path style="opacity:1" fill="#21dfcf" d="M 149.5,169.5 C 147.378,173.526 145.045,177.526 142.5,181.5C 142.608,182.442 142.941,183.275 143.5,184C 142.08,185.53 141.08,187.363 140.5,189.5C 139.735,188.388 138.735,187.721 137.5,187.5C 137.614,185.282 138.28,183.282 139.5,181.5C 141.326,179.853 142.66,177.853 143.5,175.5C 144.974,174.564 145.974,173.23 146.5,171.5C 146.5,170.833 146.833,170.5 147.5,170.5C 148.167,170.167 148.833,169.833 149.5,169.5 Z"/></g>
<g><path style="opacity:0.996" fill="#978edf" d="M 38.5,182.5 C 38.5905,185.152 37.9238,187.485 36.5,189.5C 36.4095,186.848 37.0762,184.515 38.5,182.5 Z"/></g>
<g><path style="opacity:1" fill="#429bda" d="M 361.5,183.5 C 363.262,184.262 364.262,185.596 364.5,187.5C 362.738,186.738 361.738,185.404 361.5,183.5 Z"/></g>
<g><path style="opacity:1" fill="#5b53a9" d="M 425.5,184.5 C 424.224,190.749 421.224,195.749 416.5,199.5C 419.252,194.326 422.252,189.326 425.5,184.5 Z"/></g>
<g><path style="opacity:1" fill="#5185d9" d="M 135.5,188.5 C 133.556,192.055 131.889,195.721 130.5,199.5C 130.296,194.912 131.963,191.245 135.5,188.5 Z"/></g>
<g><path style="opacity:0.998" fill="#8377d8" d="M 461.5,186.5 C 463.258,189.854 464.258,193.521 464.5,197.5C 463.883,197.389 463.383,197.056 463,196.5C 462.39,193.173 461.89,189.839 461.5,186.5 Z"/></g>
<g><path style="opacity:0.816" fill="#9e92e0" d="M 36.5,189.5 C 36.5905,192.152 35.9238,194.485 34.5,196.5C 34.4095,193.848 35.0762,191.515 36.5,189.5 Z"/></g>
<g><path style="opacity:1" fill="#3aadd3" d="M 367.5,194.5 C 369.213,195.635 369.88,197.302 369.5,199.5C 369.167,199.5 368.833,199.5 368.5,199.5C 367.699,197.958 367.366,196.292 367.5,194.5 Z"/></g>
<g><path style="opacity:1" fill="#0d0a28" d="M 390.5,191.5 C 390.833,191.5 391.167,191.5 391.5,191.5C 390.615,195.866 388.615,199.532 385.5,202.5C 386.966,198.779 388.633,195.112 390.5,191.5 Z"/></g>
<g><path style="opacity:1" fill="#29d5d7" d="M 368.5,199.5 C 368.833,199.5 369.167,199.5 369.5,199.5C 369.5,199.833 369.5,200.167 369.5,200.5C 369.427,202.027 370.094,203.027 371.5,203.5C 372.301,205.042 372.634,206.708 372.5,208.5C 369.846,206.166 368.512,203.166 368.5,199.5 Z"/></g>
<g><path style="opacity:1" fill="#37a7dc" d="M 369.5,200.5 C 370.5,200.833 371.167,201.5 371.5,202.5C 371.5,202.833 371.5,203.167 371.5,203.5C 370.094,203.027 369.427,202.027 369.5,200.5 Z"/></g>
<g><path style="opacity:1" fill="#5c54a9" d="M 416.5,199.5 C 416.288,203.208 414.622,205.874 411.5,207.5C 412.169,204.151 413.836,201.484 416.5,199.5 Z"/></g>
<g><path style="opacity:1" fill="#498dd7" d="M 130.5,199.5 C 129.871,202.397 128.871,205.064 127.5,207.5C 127.345,204.284 128.345,201.617 130.5,199.5 Z"/></g>
<g><path style="opacity:1" fill="#8b80d7" d="M 464.5,197.5 C 467.27,206.518 469.103,215.851 470,225.5C 470.828,241.339 470.661,257.005 469.5,272.5C 469.667,257.496 469.5,242.496 469,227.5C 467.449,217.477 465.949,207.477 464.5,197.5 Z"/></g>
<g><path style="opacity:1" fill="#8376e1" d="M 34.5,196.5 C 34.6657,200.846 34.499,205.179 34,209.5C 33.2838,211.879 32.1172,213.879 30.5,215.5C 31.0963,208.892 32.4297,202.558 34.5,196.5 Z"/></g>
<g><path style="opacity:1" fill="#6b6edc" d="M 371.5,202.5 C 373.213,203.635 373.88,205.302 373.5,207.5C 376.167,207.5 378.833,207.5 381.5,207.5C 380.449,210.961 378.449,213.627 375.5,215.5C 374.341,213.145 373.341,210.812 372.5,208.5C 372.634,206.708 372.301,205.042 371.5,203.5C 371.5,203.167 371.5,202.833 371.5,202.5 Z"/></g>
<g><path style="opacity:1" fill="#2ad2d9" d="M 137.5,187.5 C 132.873,198.066 128.873,208.733 125.5,219.5C 125.5,218.167 125.5,216.833 125.5,215.5C 126.167,212.833 126.833,210.167 127.5,207.5C 128.871,205.064 129.871,202.397 130.5,199.5C 131.889,195.721 133.556,192.055 135.5,188.5C 136.167,188.167 136.833,187.833 137.5,187.5 Z"/></g>
<g><path style="opacity:1" fill="#514894" d="M 411.5,207.5 C 410.243,210.427 408.243,212.761 405.5,214.5C 406.757,211.573 408.757,209.239 411.5,207.5 Z"/></g>
<g><path style="opacity:1" fill="#5087dc" d="M 126.5,207.5 C 126.833,207.5 127.167,207.5 127.5,207.5C 126.833,210.167 126.167,212.833 125.5,215.5C 125.167,215.5 124.833,215.5 124.5,215.5C 124.287,212.549 124.954,209.882 126.5,207.5 Z"/></g>
<g><path style="opacity:1" fill="#27d2cb" d="M 372.5,208.5 C 373.341,210.812 374.341,213.145 375.5,215.5C 375.771,217.38 375.104,218.713 373.5,219.5C 372.656,215.901 372.323,212.234 372.5,208.5 Z"/></g>
<g><path style="opacity:1" fill="#3bb3dd" d="M 124.5,215.5 C 124.833,215.5 125.167,215.5 125.5,215.5C 125.5,216.833 125.5,218.167 125.5,219.5C 124.833,220.833 124.167,222.167 123.5,223.5C 123.575,220.794 123.908,218.127 124.5,215.5 Z"/></g>
<g><path style="opacity:1" fill="#675bc6" d="M 405.5,214.5 C 405.037,217.482 404.704,220.482 404.5,223.5C 402.784,223.371 401.117,223.038 399.5,222.5C 401.122,219.545 403.122,216.878 405.5,214.5 Z"/></g>
<g><path style="opacity:1" fill="#696de4" d="M 126.5,207.5 C 124.954,209.882 124.287,212.549 124.5,215.5C 123.908,218.127 123.575,220.794 123.5,223.5C 122.252,226.942 121.419,230.608 121,234.5C 120.176,243.676 120.343,252.676 121.5,261.5C 121.5,263.5 121.5,265.5 121.5,267.5C 118.751,268.974 116.418,270.974 114.5,273.5C 114.421,270.729 114.921,268.063 116,265.5C 117.011,266.337 118.178,266.67 119.5,266.5C 118.925,254.807 118.258,243.14 117.5,231.5C 119.738,228.569 121.071,225.236 121.5,221.5C 121.41,219.575 120.41,218.408 118.5,218C 122.985,215.999 124.652,212.499 123.5,207.5C 124.5,207.5 125.5,207.5 126.5,207.5 Z"/></g>
<g><path style="opacity:1" fill="#665bbf" d="M 399.5,222.5 C 398.185,225.322 397.185,228.322 396.5,231.5C 395.833,231.167 395.167,230.833 394.5,230.5C 391.172,233.494 387.839,236.494 384.5,239.5C 388.796,233.261 393.796,227.594 399.5,222.5 Z"/></g>
<g><path style="opacity:1" fill="#7d70da" d="M 30.5,217.5 C 29.9494,238.921 30.6161,260.255 32.5,281.5C 31.5,280.167 30.5,278.833 29.5,277.5C 28.8892,268.192 28.5559,258.859 28.5,249.5C 28.2756,238.618 28.9423,227.951 30.5,217.5 Z"/></g>
<g><path style="opacity:1" fill="#42a8e2" d="M 123.5,223.5 C 123.414,227.857 123.08,232.19 122.5,236.5C 121.507,244.65 121.174,252.983 121.5,261.5C 120.343,252.676 120.176,243.676 121,234.5C 121.419,230.608 122.252,226.942 123.5,223.5 Z"/></g>
<g><path style="opacity:1" fill="#28c9c8" d="M 122.5,236.5 C 122.334,245.839 122.5,255.173 123,264.5C 124.324,272.603 125.824,280.603 127.5,288.5C 127.167,288.5 126.833,288.5 126.5,288.5C 125.364,283.76 124.03,279.093 122.5,274.5C 122.326,272.139 121.993,269.806 121.5,267.5C 121.5,265.5 121.5,263.5 121.5,261.5C 121.174,252.983 121.507,244.65 122.5,236.5 Z"/></g>
<g><path style="opacity:1" fill="#31c7de" d="M 379.5,244.5 C 379.822,250.358 379.489,256.025 378.5,261.5C 378.821,256.305 378.487,251.305 377.5,246.5C 377.833,245.5 378.5,244.833 379.5,244.5 Z"/></g>
<g><path style="opacity:1" fill="#04ebc8" d="M 377.5,246.5 C 378.487,251.305 378.821,256.305 378.5,261.5C 377.778,261.918 377.278,262.584 377,263.5C 376.389,268.496 375.889,273.496 375.5,278.5C 375.5,279.5 375.5,280.5 375.5,281.5C 374.542,281.953 373.708,282.619 373,283.5C 371.522,287.766 370.355,292.099 369.5,296.5C 368.833,298.833 368.167,301.167 367.5,303.5C 365.228,304.723 364.061,306.723 364,309.5C 360.009,316.314 355.842,322.981 351.5,329.5C 348.355,332.46 345.688,335.793 343.5,339.5C 340.812,340.855 338.812,342.855 337.5,345.5C 334.865,346.473 332.865,348.14 331.5,350.5C 330.508,350.328 329.842,350.662 329.5,351.5C 327.147,352.34 325.147,353.674 323.5,355.5C 320.218,357.14 317.218,359.14 314.5,361.5C 313.5,362.167 312.5,362.833 311.5,363.5C 309.022,364.883 306.355,365.883 303.5,366.5C 301.801,366.34 300.134,366.506 298.5,367C 295.248,368.566 292.248,370.399 289.5,372.5C 287.302,372.875 285.302,373.542 283.5,374.5C 282.167,374.5 280.833,374.5 279.5,374.5C 263.607,376.194 247.607,376.861 231.5,376.5C 227.534,375.838 223.534,375.505 219.5,375.5C 217.302,375.125 215.302,374.458 213.5,373.5C 211.898,371.926 209.898,371.259 207.5,371.5C 205.5,370.833 203.5,370.167 201.5,369.5C 201.443,368.391 201.11,367.391 200.5,366.5C 266.008,336.235 325.008,296.235 377.5,246.5 Z"/></g>
<g><path style="opacity:1" fill="#28d5d9" d="M 378.5,261.5 C 377.771,266.13 377.437,270.797 377.5,275.5C 376.833,276.5 376.167,277.5 375.5,278.5C 375.889,273.496 376.389,268.496 377,263.5C 377.278,262.584 377.778,261.918 378.5,261.5 Z"/></g>
<g><path style="opacity:1" fill="#4c88db" d="M 380.5,243.5 C 381.035,254.459 380.035,265.125 377.5,275.5C 377.437,270.797 377.771,266.13 378.5,261.5C 379.489,256.025 379.822,250.358 379.5,244.5C 379.5,243.833 379.833,243.5 380.5,243.5 Z"/></g>
<g><path style="opacity:1" fill="#0c0a23" d="M 121.5,267.5 C 121.993,269.806 122.326,272.139 122.5,274.5C 121.193,273.847 119.86,273.18 118.5,272.5C 116.408,274.605 114.075,276.272 111.5,277.5C 112.5,276.167 113.5,274.833 114.5,273.5C 116.418,270.974 118.751,268.974 121.5,267.5 Z"/></g>
<g><path style="opacity:1" fill="#448bdd" d="M 377.5,275.5 C 377.59,278.152 376.924,280.485 375.5,282.5C 375.5,282.167 375.5,281.833 375.5,281.5C 375.5,280.5 375.5,279.5 375.5,278.5C 376.167,277.5 376.833,276.5 377.5,275.5 Z"/></g>
<g><path style="opacity:1" fill="#26d7d6" d="M 375.5,281.5 C 375.5,281.833 375.5,282.167 375.5,282.5C 375.5,282.833 375.5,283.167 375.5,283.5C 373.642,287.241 372.309,291.241 371.5,295.5C 370.833,295.833 370.167,296.167 369.5,296.5C 370.355,292.099 371.522,287.766 373,283.5C 373.708,282.619 374.542,281.953 375.5,281.5 Z"/></g>
<g><path style="opacity:0.973" fill="#877dd9" d="M 469.5,276.5 C 468.708,285.129 467.041,293.462 464.5,301.5C 465.004,294.469 465.838,287.469 467,280.5C 467.2,278.68 468.034,277.347 469.5,276.5 Z"/></g>
<g><path style="opacity:1" fill="#423d85" d="M 126.5,290.5 C 126.267,292.062 125.6,293.395 124.5,294.5C 123.872,296.662 122.539,298.328 120.5,299.5C 121.411,295.75 123.411,292.75 126.5,290.5 Z"/></g>
<g><path style="opacity:1" fill="#4c8adc" d="M 375.5,283.5 C 375.541,288.044 374.208,292.044 371.5,295.5C 372.309,291.241 373.642,287.241 375.5,283.5 Z"/></g>
<g><path style="opacity:1" fill="#6259ab" d="M 97.5,293.5 C 96.1363,295.191 94.803,296.858 93.5,298.5C 93.3692,295.633 94.7026,293.967 97.5,293.5 Z"/></g>
<g><path style="opacity:1" fill="#4999d8" d="M 371.5,295.5 C 371.47,298.852 370.137,301.518 367.5,303.5C 368.167,301.167 368.833,298.833 369.5,296.5C 370.167,296.167 370.833,295.833 371.5,295.5 Z"/></g>
<g><path style="opacity:1" fill="#5284d7" d="M 126.5,288.5 C 126.833,288.5 127.167,288.5 127.5,288.5C 128.829,292.822 130.163,297.155 131.5,301.5C 129.883,299.879 128.716,297.879 128,295.5C 126.989,294.663 125.822,294.33 124.5,294.5C 125.6,293.395 126.267,292.062 126.5,290.5C 126.5,289.833 126.5,289.167 126.5,288.5 Z"/></g>
<g><path style="opacity:1" fill="#8478e0" d="M 464.5,303.5 C 462.767,311.122 460.434,318.456 457.5,325.5C 458.101,320.262 459.101,315.095 460.5,310C 460.352,308.293 460.018,306.626 459.5,305C 459.833,304.5 460.167,304 460.5,303.5C 461.251,304.376 461.751,305.376 462,306.5C 462.236,304.881 463.069,303.881 464.5,303.5 Z"/></g>
<g><path style="opacity:1" fill="#1edfd4" d="M 133.5,303.5 C 135.53,306.361 137.863,309.027 140.5,311.5C 141.652,314.968 142.986,318.302 144.5,321.5C 145.5,321.5 146.5,321.5 147.5,321.5C 147.387,324.049 148.054,326.382 149.5,328.5C 151.656,330.629 153.323,332.962 154.5,335.5C 152.833,334.167 151.167,332.833 149.5,331.5C 148.833,330.5 148.167,329.5 147.5,328.5C 146.92,326.251 145.587,324.585 143.5,323.5C 142.939,319.832 141.272,316.832 138.5,314.5C 136.386,311.061 134.719,307.394 133.5,303.5 Z"/></g>
<g><path style="opacity:1" fill="#5b81de" d="M 131.5,302.5 C 132.167,302.833 132.833,303.167 133.5,303.5C 134.719,307.394 136.386,311.061 138.5,314.5C 138.5,315.167 138.5,315.833 138.5,316.5C 137.206,315.71 136.039,314.71 135,313.5C 133.787,309.767 132.62,306.1 131.5,302.5 Z"/></g>
<g><path style="opacity:1" fill="#7467ec" d="M 124.5,294.5 C 125.822,294.33 126.989,294.663 128,295.5C 128.716,297.879 129.883,299.879 131.5,301.5C 131.5,301.833 131.5,302.167 131.5,302.5C 132.62,306.1 133.787,309.767 135,313.5C 136.039,314.71 137.206,315.71 138.5,316.5C 139.985,318.934 141.652,321.267 143.5,323.5C 144.08,325.749 145.413,327.415 147.5,328.5C 148.167,329.5 148.833,330.5 149.5,331.5C 153.167,337.167 157.833,341.833 163.5,345.5C 165.167,347.833 167.167,349.833 169.5,351.5C 169.5,352.5 169.5,353.5 169.5,354.5C 163.293,355.844 156.96,357.011 150.5,358C 142.833,358.667 135.167,358.667 127.5,358C 122.489,355.827 117.489,353.66 112.5,351.5C 110.14,349.287 108.306,346.621 107,343.5C 106.215,337.751 106.382,332.084 107.5,326.5C 108.496,326.586 109.329,326.252 110,325.5C 112.751,318.25 115.251,310.917 117.5,303.5C 117.738,301.596 118.738,300.262 120.5,299.5C 122.539,298.328 123.872,296.662 124.5,294.5 Z"/></g>
<g><path style="opacity:1" fill="#6a5dc1" d="M 117.5,303.5 C 115.251,310.917 112.751,318.25 110,325.5C 109.329,326.252 108.496,326.586 107.5,326.5C 109.499,318.177 112.832,310.51 117.5,303.5 Z"/></g>
<g><path style="opacity:1" fill="#3da8df" d="M 138.5,314.5 C 141.272,316.832 142.939,319.832 143.5,323.5C 141.652,321.267 139.985,318.934 138.5,316.5C 138.5,315.833 138.5,315.167 138.5,314.5 Z"/></g>
<g><path style="opacity:1" fill="#30c5dc" d="M 367.5,303.5 C 366.215,307.696 364.548,311.696 362.5,315.5C 358.84,319.843 355.507,324.51 352.5,329.5C 352.167,329.5 351.833,329.5 351.5,329.5C 355.842,322.981 360.009,316.314 364,309.5C 364.061,306.723 365.228,304.723 367.5,303.5 Z"/></g>
<g><path style="opacity:1" fill="#5e7ae0" d="M 362.5,315.5 C 360.954,317.882 360.287,320.549 360.5,323.5C 359.178,323.33 358.011,323.663 357,324.5C 356.187,326.436 355.687,328.436 355.5,330.5C 354.5,330.5 353.5,330.5 352.5,330.5C 352.5,330.167 352.5,329.833 352.5,329.5C 355.507,324.51 358.84,319.843 362.5,315.5 Z"/></g>
<g><path style="opacity:1" fill="#665cb2" d="M 78.5,319.5 C 77.3411,323.151 75.6744,326.485 73.5,329.5C 73.6287,327.784 73.962,326.117 74.5,324.5C 75.593,322.651 76.9263,320.984 78.5,319.5 Z"/></g>
<g><path style="opacity:1" fill="#459adb" d="M 143.5,323.5 C 145.587,324.585 146.92,326.251 147.5,328.5C 145.413,327.415 144.08,325.749 143.5,323.5 Z"/></g>
<g><path style="opacity:1" fill="#3babdc" d="M 351.5,329.5 C 351.833,329.5 352.167,329.5 352.5,329.5C 352.5,329.833 352.5,330.167 352.5,330.5C 349.608,333.271 346.942,336.271 344.5,339.5C 344.167,339.5 343.833,339.5 343.5,339.5C 345.688,335.793 348.355,332.46 351.5,329.5 Z"/></g>
<g><path style="opacity:1" fill="#429ad9" d="M 149.5,331.5 C 151.167,332.833 152.833,334.167 154.5,335.5C 157.5,338.833 160.5,342.167 163.5,345.5C 157.833,341.833 153.167,337.167 149.5,331.5 Z"/></g>
<g><path style="opacity:1" fill="#14133a" d="M 71.5,335.5 C 71.2299,339.358 69.8966,342.691 67.5,345.5C 68.2667,341.851 69.6001,338.518 71.5,335.5 Z"/></g>
<g><path style="opacity:1" fill="#887be1" d="M 29.5,277.5 C 30.5,278.833 31.5,280.167 32.5,281.5C 33.673,296.523 37.173,310.856 43,324.5C 43.6689,321.972 44.5022,321.972 45.5,324.5C 44.3952,327.846 44.5619,331.179 46,334.5C 49.3645,338.16 51.1979,342.493 51.5,347.5C 52.5,347.5 53.5,347.5 54.5,347.5C 55.7966,351.353 56.7966,355.353 57.5,359.5C 42.4207,334.265 33.0874,306.932 29.5,277.5 Z"/></g>
<g><path style="opacity:1" fill="#4f8be0" d="M 343.5,339.5 C 343.833,339.5 344.167,339.5 344.5,339.5C 343.007,342.493 340.674,344.493 337.5,345.5C 338.812,342.855 340.812,340.855 343.5,339.5 Z"/></g>
<g><path style="opacity:1" fill="#867ae0" d="M 457.5,325.5 C 453.635,336.791 448.635,347.458 442.5,357.5C 442.229,355.179 442.896,353.179 444.5,351.5C 444.291,350.914 443.957,350.414 443.5,350C 444.648,348.351 445.981,346.851 447.5,345.5C 449.572,341.261 451.572,336.261 453.5,330.5C 454.612,328.581 455.946,326.914 457.5,325.5 Z"/></g>
<g><path style="opacity:1" fill="#3bafdb" d="M 163.5,345.5 C 166.427,346.757 168.761,348.757 170.5,351.5C 170.167,351.5 169.833,351.5 169.5,351.5C 167.167,349.833 165.167,347.833 163.5,345.5 Z"/></g>
<g><path style="opacity:1" fill="#429fdb" d="M 337.5,345.5 C 336.109,347.89 334.109,349.557 331.5,350.5C 332.865,348.14 334.865,346.473 337.5,345.5 Z"/></g>
<g><path style="opacity:1" fill="#3aa2be" d="M 170.5,351.5 C 172.315,352.63 174.315,353.296 176.5,353.5C 175.432,354.434 174.099,354.768 172.5,354.5C 171.833,353.5 171.167,352.5 170.5,351.5 Z"/></g>
<g><path style="opacity:1" fill="#34b8de" d="M 329.5,351.5 C 328.198,353.822 326.198,355.155 323.5,355.5C 325.147,353.674 327.147,352.34 329.5,351.5 Z"/></g>
<g><path style="opacity:1" fill="#6e65c8" d="M 112.5,351.5 C 117.489,353.66 122.489,355.827 127.5,358C 135.167,358.667 142.833,358.667 150.5,358C 156.96,357.011 163.293,355.844 169.5,354.5C 169.5,353.5 169.5,352.5 169.5,351.5C 169.833,351.5 170.167,351.5 170.5,351.5C 171.167,352.5 171.833,353.5 172.5,354.5C 167.887,356.038 163.22,357.371 158.5,358.5C 148.854,359.287 139.188,359.62 129.5,359.5C 122.494,359.483 116.827,356.816 112.5,351.5 Z"/></g>
<g><path style="opacity:1" fill="#0e113a" d="M 67.5,347.5 C 66.7803,353.138 66.447,358.804 66.5,364.5C 66.1667,364.5 65.8333,364.5 65.5,364.5C 65.3343,360.154 65.501,355.821 66,351.5C 66.21,349.942 66.71,348.609 67.5,347.5 Z"/></g>
<g><path style="opacity:1" fill="#7467e1" d="M 74.5,324.5 C 73.962,326.117 73.6287,327.784 73.5,329.5C 72.3702,331.315 71.7036,333.315 71.5,335.5C 69.6001,338.518 68.2667,341.851 67.5,345.5C 67.5,346.167 67.5,346.833 67.5,347.5C 66.71,348.609 66.21,349.942 66,351.5C 65.501,355.821 65.3343,360.154 65.5,364.5C 65.9227,366.781 65.256,368.448 63.5,369.5C 63.3122,366.794 62.3122,364.461 60.5,362.5C 61.1174,362.389 61.6174,362.056 62,361.5C 62.3333,359.167 62.6667,356.833 63,354.5C 63.3333,354.833 63.6667,355.167 64,355.5C 65.1219,347.309 66.9552,339.309 69.5,331.5C 68.1779,331.33 67.0113,331.663 66,332.5C 65.6401,334.608 64.9734,336.608 64,338.5C 63.0565,337.737 62.5565,336.737 62.5,335.5C 63.9053,331.694 66.0719,328.361 69,325.5C 70.113,326.76 70.2797,327.927 69.5,329C 70.448,329.483 71.448,329.649 72.5,329.5C 71.5,326.833 70.5,324.167 69.5,321.5C 67.8967,321.688 66.5634,321.188 65.5,320C 69.5057,319.509 72.5057,321.009 74.5,324.5 Z"/></g>
<g><path style="opacity:1" fill="#1d1b45" d="M 158.5,358.5 C 153.084,360.029 147.417,360.695 141.5,360.5C 137.319,360.499 133.319,360.166 129.5,359.5C 139.188,359.62 148.854,359.287 158.5,358.5 Z"/></g>
<g><path style="opacity:1" fill="#37bcda" d="M 323.5,355.5 C 321.25,358.589 318.25,360.589 314.5,361.5C 317.218,359.14 320.218,357.14 323.5,355.5 Z"/></g>
<g><path style="opacity:1" fill="#897ce4" d="M 441.5,360.5 C 439.646,364.221 437.313,367.554 434.5,370.5C 434.372,368.345 434.872,366.345 436,364.5C 438.109,363.965 438.609,362.965 437.5,361.5C 438.689,360.571 440.022,360.238 441.5,360.5 Z"/></g>
<g><path style="opacity:0.882" fill="#9084dc" d="M 57.5,360.5 C 59.0269,360.427 60.0269,361.094 60.5,362.5C 62.3122,364.461 63.3122,366.794 63.5,369.5C 61.2651,366.709 59.2651,363.709 57.5,360.5 Z"/></g>
<g><path style="opacity:1" fill="#4a8cd9" d="M 311.5,363.5 C 309.685,366.407 307.019,367.741 303.5,367.5C 303.5,367.167 303.5,366.833 303.5,366.5C 306.355,365.883 309.022,364.883 311.5,363.5 Z"/></g>
<g><path style="opacity:1" fill="#43afcb" d="M 200.5,366.5 C 201.11,367.391 201.443,368.391 201.5,369.5C 199.847,369.34 198.514,368.674 197.5,367.5C 198.391,366.89 199.391,366.557 200.5,366.5 Z"/></g>
<g><path style="opacity:1" fill="#7b70c1" d="M 65.5,364.5 C 65.8333,364.5 66.1667,364.5 66.5,364.5C 67.4605,372.088 70.7938,378.421 76.5,383.5C 75.6457,384.632 75.6457,385.965 76.5,387.5C 71.4242,382.082 67.0908,376.082 63.5,369.5C 65.256,368.448 65.9227,366.781 65.5,364.5 Z"/></g>
<g><path style="opacity:1" fill="#518fde" d="M 303.5,367.5 C 302.313,369.975 300.313,370.975 297.5,370.5C 298.687,368.025 300.687,367.025 303.5,367.5 Z"/></g>
<g><path style="opacity:1" fill="#2cd3db" d="M 303.5,366.5 C 303.5,366.833 303.5,367.167 303.5,367.5C 300.687,367.025 298.687,368.025 297.5,370.5C 295.102,370.259 293.102,370.926 291.5,372.5C 290.833,372.5 290.167,372.5 289.5,372.5C 292.248,370.399 295.248,368.566 298.5,367C 300.134,366.506 301.801,366.34 303.5,366.5 Z"/></g>
<g><path style="opacity:1" fill="#5385dd" d="M 297.5,370.5 C 295.898,372.074 293.898,372.741 291.5,372.5C 293.102,370.926 295.102,370.259 297.5,370.5 Z"/></g>
<g><path style="opacity:1" fill="#38b6df" d="M 207.5,372.5 C 207.5,372.167 207.5,371.833 207.5,371.5C 209.898,371.259 211.898,371.926 213.5,373.5C 211.435,373.483 209.435,373.15 207.5,372.5 Z"/></g>
<g><path style="opacity:1" fill="#7a6de8" d="M 432.5,374.5 C 427.636,381.571 422.303,388.238 416.5,394.5C 418.012,391.594 419.012,388.761 419.5,386C 419.381,381.398 418.048,376.898 415.5,372.5C 415.667,372.167 415.833,371.833 416,371.5C 419.044,372.803 420.211,375.136 419.5,378.5C 420.93,378.579 422.264,378.246 423.5,377.5C 423.976,374.881 425.309,372.881 427.5,371.5C 426.687,370.186 425.687,369.019 424.5,368C 425.865,366.318 427.365,366.151 429,367.5C 428.773,369.574 428.939,371.574 429.5,373.5C 430.325,374.386 431.325,374.719 432.5,374.5 Z"/></g>
<g><path style="opacity:1" fill="#6c64cf" d="M 197.5,367.5 C 198.514,368.674 199.847,369.34 201.5,369.5C 203.5,370.167 205.5,370.833 207.5,371.5C 207.5,371.833 207.5,372.167 207.5,372.5C 205.266,372.38 203.099,372.713 201,373.5C 199.273,373.354 199.106,372.687 200.5,371.5C 198.257,370.526 195.924,370.192 193.5,370.5C 193.5,371.5 193.5,372.5 193.5,373.5C 189.528,374.108 185.528,374.608 181.5,375C 176.869,376.934 172.202,378.934 167.5,381C 165.527,381.495 163.527,381.662 161.5,381.5C 161.611,380.883 161.944,380.383 162.5,380C 174.393,376.643 186.059,372.476 197.5,367.5 Z"/></g>
<g><path style="opacity:1" fill="#3caedb" d="M 219.5,375.5 C 223.534,375.505 227.534,375.838 231.5,376.5C 244.656,377.496 257.99,377.829 271.5,377.5C 271.5,377.833 271.5,378.167 271.5,378.5C 258.826,379.713 246.16,379.713 233.5,378.5C 228.578,378.13 223.911,377.13 219.5,375.5 Z"/></g>
<g><path style="opacity:1" fill="#5f79e3" d="M 289.5,372.5 C 290.167,372.5 290.833,372.5 291.5,372.5C 290.263,374.097 288.596,375.263 286.5,376C 284.866,376.494 283.199,376.66 281.5,376.5C 282.167,375.833 282.833,375.167 283.5,374.5C 285.302,373.542 287.302,372.875 289.5,372.5 Z"/></g>
<g><path style="opacity:1" fill="#1ae0d1" d="M 279.5,374.5 C 276.687,375.082 274.02,376.082 271.5,377.5C 257.99,377.829 244.656,377.496 231.5,376.5C 247.607,376.861 263.607,376.194 279.5,374.5 Z"/></g>
<g><path style="opacity:1" fill="#3f98d6" d="M 279.5,374.5 C 280.833,374.5 282.167,374.5 283.5,374.5C 282.833,375.167 282.167,375.833 281.5,376.5C 278.14,376.616 274.807,376.949 271.5,377.5C 274.02,376.082 276.687,375.082 279.5,374.5 Z"/></g>
<g><path style="opacity:1" fill="#6074e2" d="M 233.5,378.5 C 246.16,379.713 258.826,379.713 271.5,378.5C 265.872,379.829 259.872,380.496 253.5,380.5C 247.5,380.333 241.5,380.167 235.5,380C 234.584,379.722 233.918,379.222 233.5,378.5 Z"/></g>
<g><path style="opacity:1" fill="#16153f" d="M 81.5,385.5 C 84.6489,385.415 87.3155,386.415 89.5,388.5C 88.5,388.5 87.5,388.5 86.5,388.5C 84.7392,387.687 83.0725,386.687 81.5,385.5 Z"/></g>
<g><path style="opacity:1" fill="#0e0a27" d="M 146.5,384.5 C 129.836,389.875 112.836,391.542 95.5,389.5C 102.841,389.666 110.174,389.5 117.5,389C 127.126,387.171 136.793,385.671 146.5,384.5 Z"/></g>
<g><path style="opacity:1" fill="#776cd6" d="M 76.5,383.5 C 78.2838,383.893 79.9505,384.559 81.5,385.5C 83.0725,386.687 84.7392,387.687 86.5,388.5C 83.9512,388.613 81.6179,387.946 79.5,386.5C 79.1667,387 78.8333,387.5 78.5,388C 80.1119,389.482 81.1119,391.315 81.5,393.5C 79.1097,392.109 77.4431,390.109 76.5,387.5C 75.6457,385.965 75.6457,384.632 76.5,383.5 Z"/></g>
<g><path style="opacity:1" fill="#7165d6" d="M 160.5,381.5 C 160.5,382.5 160.5,383.5 160.5,384.5C 155.079,385.358 149.745,386.858 144.5,389C 146.167,389.333 147.833,389.667 149.5,390C 148.57,390.991 147.404,391.491 146,391.5C 142.934,389.053 139.934,389.053 137,391.5C 132.542,390.421 128.042,390.254 123.5,391C 123.833,391.333 124.167,391.667 124.5,392C 114.167,392.667 103.833,392.667 93.5,392C 90.8079,391.257 88.4746,390.09 86.5,388.5C 87.5,388.5 88.5,388.5 89.5,388.5C 91.2646,389.461 93.2646,389.795 95.5,389.5C 112.836,391.542 129.836,389.875 146.5,384.5C 151.245,383.751 155.912,382.751 160.5,381.5 Z"/></g>
<g><path style="opacity:1" fill="#8073e7" d="M 411.5,400.5 C 408.167,404.5 404.5,408.167 400.5,411.5C 400.141,409.234 400.808,407.401 402.5,406C 402.167,405.667 401.833,405.333 401.5,405C 402.793,404.51 404.127,404.343 405.5,404.5C 405.549,401.626 405.216,398.792 404.5,396C 404.745,392.745 406.412,391.412 409.5,392C 410.673,395.11 410.173,395.277 408,392.5C 404.668,394.443 404.834,395.61 408.5,396C 405.756,399.462 406.756,400.962 411.5,400.5 Z"/></g>
<g><path style="opacity:1" fill="#897fde" d="M 416.5,394.5 C 415.557,397.109 413.89,399.109 411.5,400.5C 410.976,396.69 412.643,394.69 416.5,394.5 Z"/></g>
<g><path style="opacity:1" fill="#7c6ee6" d="M 81.5,393.5 C 84.203,393.952 86.8697,394.619 89.5,395.5C 89.2907,396.086 88.9574,396.586 88.5,397C 90.4506,398.734 91.4506,400.901 91.5,403.5C 93.7426,402.161 96.7426,400.828 100.5,399.5C 101.167,399.833 101.833,400.167 102.5,400.5C 101.092,401.243 99.7588,402.077 98.5,403C 100.572,404.273 101.905,406.107 102.5,408.5C 101.603,408.669 100.603,409.002 99.5,409.5C 100.986,411.302 101.986,413.302 102.5,415.5C 94.798,408.799 87.798,401.466 81.5,393.5 Z"/></g>
<g><path style="opacity:1" fill="#8179d5" d="M 400.5,411.5 C 397.874,413.823 395.207,416.157 392.5,418.5C 393.581,416.236 394.915,414.069 396.5,412C 397.793,411.51 399.127,411.343 400.5,411.5 Z"/></g>
<g><path style="opacity:1" fill="#7a6de7" d="M 392.5,418.5 C 385.884,424.809 378.55,430.143 370.5,434.5C 371.511,432.801 372.845,431.301 374.5,430C 374.355,429.228 374.022,428.561 373.5,428C 375.5,427 377.5,426 379.5,425C 378.692,424.692 378.025,424.192 377.5,423.5C 378.246,422.264 378.579,420.93 378.5,419.5C 374.209,420.18 371.543,418.514 370.5,414.5C 372.288,414.215 373.955,414.548 375.5,415.5C 377.042,418.362 379.209,419.362 382,418.5C 383.368,419.703 384.868,420.703 386.5,421.5C 387.113,420.02 387.446,418.687 387.5,417.5C 389.071,418.309 390.738,418.643 392.5,418.5 Z"/></g>
<g><path style="opacity:1" fill="#9085da" d="M 103.5,415.5 C 106.427,416.757 108.761,418.757 110.5,421.5C 107.573,420.243 105.239,418.243 103.5,415.5 Z"/></g>
<g><path style="opacity:1" fill="#7e70e4" d="M 148.5,446.5 C 134.455,440.152 121.788,431.819 110.5,421.5C 112.144,421.714 113.644,421.38 115,420.5C 115.49,421.793 115.657,423.127 115.5,424.5C 116.552,424.649 117.552,424.483 118.5,424C 122.719,417.588 124.886,418.088 125,425.5C 123.644,424.62 122.144,424.286 120.5,424.5C 120.5,425.833 120.5,427.167 120.5,428.5C 122.359,428.461 123.692,429.294 124.5,431C 129.352,430.807 133.685,432.14 137.5,435C 136.5,435.333 135.5,435.667 134.5,436C 137.666,438.087 140.666,440.421 143.5,443C 144.833,443.333 146.167,443.667 147.5,444C 148.252,444.671 148.586,445.504 148.5,446.5 Z"/></g>
<g><path style="opacity:1" fill="#7f72e2" d="M 357.5,442.5 C 354.322,445.258 350.655,447.258 346.5,448.5C 347.171,447.153 347.171,445.986 346.5,445C 349.688,441.58 353.355,440.747 357.5,442.5 Z"/></g>
<g><path style="opacity:1" fill="#9184e1" d="M 346.5,448.5 C 339.916,452.287 332.916,455.287 325.5,457.5C 329.94,454.232 334.94,451.566 340.5,449.5C 342.396,448.534 344.396,448.201 346.5,448.5 Z"/></g>
<g><path style="opacity:1" fill="#8477e0" d="M 156.5,450.5 C 159.518,450.335 162.518,450.502 165.5,451C 164.833,451.333 164.167,451.667 163.5,452C 171.237,454.879 178.903,458.045 186.5,461.5C 175.993,459 165.993,455.333 156.5,450.5 Z"/></g>
<g><path style="opacity:1" fill="#8c80dd" d="M 325.5,457.5 C 320.517,459.937 315.183,461.604 309.5,462.5C 314.211,459.314 319.544,457.647 325.5,457.5 Z"/></g>
<g><path style="opacity:1" fill="#8479d8" d="M 186.5,461.5 C 190.525,461.63 194.191,462.63 197.5,464.5C 193.521,464.258 189.854,463.258 186.5,461.5 Z"/></g>
<g><path style="opacity:1" fill="#8479e0" d="M 309.5,462.5 C 298.857,465.963 287.857,468.297 276.5,469.5C 276.5,469.167 276.5,468.833 276.5,468.5C 280.101,467.651 283.768,466.984 287.5,466.5C 287.281,465.325 287.614,464.325 288.5,463.5C 290.273,464.087 292.106,464.42 294,464.5C 298.958,462.885 304.125,462.218 309.5,462.5 Z"/></g>
<g><path style="opacity:1" fill="#8d81dd" d="M 197.5,464.5 C 204.708,465.672 212.041,466.672 219.5,467.5C 220.167,468.167 220.833,468.833 221.5,469.5C 213.224,468.579 205.224,466.913 197.5,464.5 Z"/></g>
<g><path style="opacity:1" fill="#7d6fda" d="M 219.5,467.5 C 238.473,468.449 257.473,468.782 276.5,468.5C 276.5,468.833 276.5,469.167 276.5,469.5C 258.171,470.819 239.837,470.819 221.5,469.5C 220.833,468.833 220.167,468.167 219.5,467.5 Z"/></g>
</svg>
