<?xml version="1.0" encoding="UTF-8"?>
<!DOCTYPE svg PUBLIC "-//W3C//DTD SVG 1.1//EN" "http://www.w3.org/Graphics/SVG/1.1/DTD/svg11.dtd">
<svg xmlns="http://www.w3.org/2000/svg" version="1.1" width="497px" height="146px" style="shape-rendering:geometricPrecision; text-rendering:geometricPrecision; image-rendering:optimizeQuality; fill-rule:evenodd; clip-rule:evenodd" xmlns:xlink="http://www.w3.org/1999/xlink">
<g><path style="opacity:1" fill="#7366ec" d="M -0.5,-0.5 C 165.167,-0.5 330.833,-0.5 496.5,-0.5C 496.5,48.1667 496.5,96.8333 496.5,145.5C 330.833,145.5 165.167,145.5 -0.5,145.5C -0.5,96.8333 -0.5,48.1667 -0.5,-0.5 Z"/></g>
<g><path style="opacity:1" fill="#01ecc8" d="M 115.5,35.5 C 117.55,37.5475 119.883,39.2141 122.5,40.5C 129.224,47.2794 133.891,55.2794 136.5,64.5C 128.354,76.1453 118.354,85.9786 106.5,94C 92.3646,103.974 77.0313,111.474 60.5,116.5C 52.8686,109.908 47.2019,101.908 43.5,92.5C 43.1417,89.7334 42.475,87.0667 41.5,84.5C 40.4554,52.048 55.9554,33.3813 88,28.5C 97.7098,28.8731 106.877,31.2064 115.5,35.5 Z"/></g>
<g><path style="opacity:1" fill="#040507" d="M 138.5,75.5 C 118.388,94.0569 96.0551,109.39 71.5,121.5C 60.3621,125.823 48.8621,128.823 37,130.5C 21.7206,129.891 17.0539,122.558 23,108.5C 27.4995,99.173 33.6662,91.173 41.5,84.5C 42.475,87.0667 43.1417,89.7334 43.5,92.5C 29.4764,114.157 35.143,122.157 60.5,116.5C 77.0313,111.474 92.3646,103.974 106.5,94C 118.354,85.9786 128.354,76.1453 136.5,64.5C 142.541,58.706 144.541,51.706 142.5,43.5C 140.705,41.2975 138.371,40.1308 135.5,40C 131.113,39.2938 126.78,39.4604 122.5,40.5C 119.883,39.2141 117.55,37.5475 115.5,35.5C 127.879,28.9943 140.879,27.4943 154.5,31C 159.618,35.5871 160.785,41.0871 158,47.5C 152.838,57.8178 146.338,67.1511 138.5,75.5 Z"/></g>
<g><path style="opacity:1" fill="#040309" d="M 255.5,30.5 C 262.508,30.3337 269.508,30.5004 276.5,31C 285.096,32.5717 286.93,37.0717 282,44.5C 272.702,39.9237 262.869,38.4237 252.5,40C 247.249,41.0304 243.415,43.8638 241,48.5C 240.333,46.5 240.333,44.5 241,42.5C 244.399,36.7237 249.232,32.7237 255.5,30.5 Z"/></g>
<g><path style="opacity:1" fill="#06050c" d="M 355.5,30.5 C 366.716,29.7562 377.716,30.7562 388.5,33.5C 387.983,37.2217 387.15,40.8883 386,44.5C 375.934,39.5059 365.434,38.3392 354.5,41C 349.917,46.4763 350.917,50.8096 357.5,54C 365.62,55.9564 373.62,58.2898 381.5,61C 386.823,65.7138 386.823,70.3805 381.5,75C 373.336,76.4501 365.669,75.1168 358.5,71C 354.167,70.3333 349.833,70.3333 345.5,71C 342.845,75.6542 342.012,75.1542 343,69.5C 348.711,62.863 355.877,60.6964 364.5,63C 369.813,65.8684 375.479,67.0351 381.5,66.5C 381.374,63.405 379.707,61.5717 376.5,61C 368.122,58.8222 359.789,56.4889 351.5,54C 342.655,49.2648 341.321,42.9315 347.5,35C 350.354,33.6035 353.02,32.1035 355.5,30.5 Z"/></g>
<g><path style="opacity:1" fill="#06040b" d="M 429.5,41.5 C 428.662,41.1583 428.328,40.4916 428.5,39.5C 430.665,31.8595 435.665,29.0262 443.5,31C 445.552,31.9299 447.052,33.4299 448,35.5C 451.673,56.0556 454.506,76.7223 456.5,97.5C 453.167,97.5 449.833,97.5 446.5,97.5C 444.434,77.7741 441.934,58.1074 439,38.5C 437.971,35.1247 435.804,33.9581 432.5,35C 430.549,36.7342 429.549,38.9009 429.5,41.5 Z"/></g>
<g><path style="opacity:1" fill="#06040b" d="M 433.5,89.5 C 434.404,90.209 434.737,91.209 434.5,92.5C 430.442,97.2259 425.776,97.7259 420.5,94C 417.591,90.6259 415.424,86.7925 414,82.5C 411.566,68.5611 409.566,54.5611 408,40.5C 407.64,38.3921 406.973,36.3921 406,34.5C 405.31,33.2617 404.81,33.2617 404.5,34.5C 403.833,34.1667 403.167,33.8333 402.5,33.5C 400.974,31.87 398.974,31.0367 396.5,31C 402.167,30.3333 407.833,30.3333 413.5,31C 414.333,31.8333 415.167,32.6667 416,33.5C 418.704,48.4284 421.038,63.4284 423,78.5C 424.136,82.2432 425.47,85.9099 427,89.5C 429.293,92.1339 431.46,92.1339 433.5,89.5 Z"/></g>
<g><path style="opacity:1" fill="#171530" d="M 336.5,40.5 C 336.5,37.5 336.5,34.5 336.5,31.5C 331.305,31.1795 326.305,31.5128 321.5,32.5C 320.85,32.1961 320.183,31.8627 319.5,31.5C 318.833,53.6629 318.167,75.6629 317.5,97.5C 317.5,75.5 317.5,53.5 317.5,31.5C 314.833,31.5 312.167,31.5 309.5,31.5C 309.5,53.5 309.5,75.5 309.5,97.5C 308.833,75.6629 308.167,53.6629 307.5,31.5C 306.817,31.8627 306.15,32.1961 305.5,32.5C 300.695,31.5128 295.695,31.1795 290.5,31.5C 290.194,34.3854 290.527,37.0521 291.5,39.5C 291.217,40.2891 290.717,40.9558 290,41.5C 289.501,37.8484 289.335,34.1817 289.5,30.5C 305.5,30.5 321.5,30.5 337.5,30.5C 337.837,34.6214 337.504,37.9548 336.5,40.5 Z"/></g>
<g><path style="opacity:1" fill="#030207" d="M 321.5,32.5 C 326.305,31.5128 331.305,31.1795 336.5,31.5C 336.5,34.5 336.5,37.5 336.5,40.5C 331.965,36.9662 326.965,34.2995 321.5,32.5 Z"/></g>
<g><path style="opacity:1" fill="#000000" d="M 317.5,97.5 C 314.833,97.5 312.167,97.5 309.5,97.5C 309.5,75.5 309.5,53.5 309.5,31.5C 312.167,31.5 314.833,31.5 317.5,31.5C 317.5,53.5 317.5,75.5 317.5,97.5 Z"/></g>
<g><path style="opacity:1" fill="#020104" d="M 305.5,32.5 C 300.387,33.9483 295.72,36.2816 291.5,39.5C 290.527,37.0521 290.194,34.3854 290.5,31.5C 295.695,31.1795 300.695,31.5128 305.5,32.5 Z"/></g>
<g><path style="opacity:1" fill="#7366ea" d="M 136.5,64.5 C 133.891,55.2794 129.224,47.2794 122.5,40.5C 126.78,39.4604 131.113,39.2938 135.5,40C 138.371,40.1308 140.705,41.2975 142.5,43.5C 144.541,51.706 142.541,58.706 136.5,64.5 Z"/></g>
<g><path style="opacity:1" fill="#221e42" d="M 402.5,33.5 C 403.167,33.8333 403.833,34.1667 404.5,34.5C 403.143,43.2998 401.809,51.9664 400.5,60.5C 400.768,58.901 400.434,57.5676 399.5,56.5C 401.307,48.9398 402.307,41.2731 402.5,33.5 Z"/></g>
<g><path style="opacity:1" fill="#0b0814" d="M 191.5,52.5 C 193.43,56.3727 194.097,60.706 193.5,65.5C 210.833,66.1667 210.833,66.8333 193.5,67.5C 192.833,84.8333 192.167,84.8333 191.5,67.5C 174.167,66.8333 174.167,66.1667 191.5,65.5C 191.5,61.1667 191.5,56.8333 191.5,52.5 Z"/></g>
<g><path style="opacity:1" fill="#05040a" d="M 399.5,56.5 C 400.434,57.5676 400.768,58.901 400.5,60.5C 399.212,71.7568 401.045,82.4235 406,92.5C 407.731,94.6166 409.898,96.1166 412.5,97C 405.842,97.4996 399.175,97.6663 392.5,97.5C 394.354,83.7497 396.688,70.083 399.5,56.5 Z"/></g>
<g><path style="opacity:1" fill="#252048" d="M 428.5,39.5 C 428.328,40.4916 428.662,41.1583 429.5,41.5C 429.334,45.8461 429.501,50.1794 430,54.5C 431.773,63.4685 433.439,72.4685 435,81.5C 435.81,85.3575 435.643,89.0242 434.5,92.5C 434.737,91.209 434.404,90.209 433.5,89.5C 431.774,74.306 429.774,59.1394 427.5,44C 427.508,42.2933 427.842,40.7933 428.5,39.5 Z"/></g>
<g><path style="opacity:1" fill="#03eac8" d="M 138.5,75.5 C 137.514,101.986 124.18,118.486 98.5,125C 92.8333,125.667 87.1667,125.667 81.5,125C 77.7549,124.698 74.4216,123.531 71.5,121.5C 96.0551,109.39 118.388,94.0569 138.5,75.5 Z"/></g>
<g><path style="opacity:1" fill="#06050c" d="M 342.5,77.5 C 345.476,82.2802 349.809,85.4469 355.5,87C 366.045,89.456 376.378,88.956 386.5,85.5C 386.692,89.1203 385.692,92.6203 383.5,96C 370.992,100.299 359.325,98.6322 348.5,91C 344.731,87.2944 342.731,82.7944 342.5,77.5 Z"/></g>
<g><path style="opacity:1" fill="#06050c" d="M 240.5,51.5 C 242.34,53.168 244.34,54.668 246.5,56C 254.833,57 263.167,58 271.5,59C 286.762,65.12 290.262,75.2866 282,89.5C 273.166,96.9165 263,99.4165 251.5,97C 247.951,96.2264 244.618,94.893 241.5,93C 239.138,88.9893 239.638,85.156 243,81.5C 252.872,88.1509 263.705,90.3175 275.5,88C 282.761,86.7521 285.594,82.5854 284,75.5C 282.421,73.9588 280.587,72.7922 278.5,72C 272.589,70.5362 266.589,69.5362 260.5,69C 252.062,67.7066 245.562,63.54 241,56.5C 240.506,54.8659 240.34,53.1992 240.5,51.5 Z"/></g>
<g><path style="opacity:1" fill="#7267ea" d="M 43.5,92.5 C 47.2019,101.908 52.8686,109.908 60.5,116.5C 35.143,122.157 29.4764,114.157 43.5,92.5 Z"/></g>
<g><path style="opacity:1" fill="#110d19" d="M 285.5,125.5 C 285.56,126.043 285.893,126.376 286.5,126.5C 287.325,122.878 287.825,119.211 288,115.5C 288.499,120.489 288.666,125.489 288.5,130.5C 284.884,127.715 281.718,124.381 279,120.5C 278.502,123.817 278.335,127.15 278.5,130.5C 277.5,130.5 276.5,130.5 275.5,130.5C 275.5,125.5 275.5,120.5 275.5,115.5C 279.723,117.722 283.056,121.056 285.5,125.5 Z"/></g>
<g><path style="opacity:1" fill="#383173" d="M 288.5,130.5 C 288.666,125.489 288.499,120.489 288,115.5C 287.825,119.211 287.325,122.878 286.5,126.5C 285.893,126.376 285.56,126.043 285.5,125.5C 286.482,122.038 286.815,118.371 286.5,114.5C 287.5,114.5 288.5,114.5 289.5,114.5C 289.821,120.026 289.488,125.36 288.5,130.5 Z"/></g>
<g><path style="opacity:1" fill="#130f1e" d="M 329.5,115.5 C 332.898,115.18 336.232,115.513 339.5,116.5C 336.914,117.48 334.247,117.813 331.5,117.5C 331.5,118.833 331.5,120.167 331.5,121.5C 340.833,122.167 340.833,122.833 331.5,123.5C 331.5,125.167 331.5,126.833 331.5,128.5C 334.572,128.183 337.572,128.516 340.5,129.5C 336.893,130.489 333.226,130.823 329.5,130.5C 329.5,125.5 329.5,120.5 329.5,115.5 Z"/></g>
<g><path style="opacity:1" fill="#020206" d="M 391.5,115.5 C 393.43,119.373 394.097,123.706 393.5,128.5C 396.247,128.187 398.914,128.52 401.5,129.5C 398.232,130.487 394.898,130.82 391.5,130.5C 391.5,125.5 391.5,120.5 391.5,115.5 Z"/></g>
<g><path style="opacity:1" fill="#0f0c19" d="M 360.5,115.5 C 363.807,115.063 366.807,115.73 369.5,117.5C 366.667,117.582 363.667,117.748 360.5,118C 357.878,121.13 357.878,124.297 360.5,127.5C 363.167,128.833 365.833,128.833 368.5,127.5C 369.833,128.167 369.833,128.833 368.5,129.5C 359.86,131.694 356.027,128.36 357,119.5C 357.69,117.65 358.856,116.316 360.5,115.5 Z"/></g>
<g><path style="opacity:1" fill="#100c19" d="M 297.5,115.5 C 298.822,115.33 299.989,115.663 301,116.5C 302.696,120.725 304.529,124.892 306.5,129C 306.167,129.5 305.833,130 305.5,130.5C 304.673,127.111 302.507,125.778 299,126.5C 295.835,126.334 293.668,127.667 292.5,130.5C 292.167,130.167 291.833,129.833 291.5,129.5C 294.063,125.044 296.063,120.377 297.5,115.5 Z"/></g>
<g><path style="opacity:1" fill="#6a5edb" d="M 298.5,118.5 C 300.614,119.784 301.614,121.784 301.5,124.5C 299.712,124.785 298.045,124.452 296.5,123.5C 297.174,121.805 297.841,120.138 298.5,118.5 Z"/></g>
<g><path style="opacity:1" fill="#110d1a" d="M 408.5,115.5 C 409.675,115.281 410.675,115.614 411.5,116.5C 414.437,120.992 416.104,125.659 416.5,130.5C 413.764,126.663 410.097,125.663 405.5,127.5C 405.081,128.672 404.415,129.672 403.5,130.5C 403.167,130.167 402.833,129.833 402.5,129.5C 404.512,124.812 406.512,120.145 408.5,115.5 Z"/></g>
<g><path style="opacity:1" fill="#695dd8" d="M 409.5,117.5 C 411.293,119.426 412.293,121.759 412.5,124.5C 410.833,124.5 409.167,124.5 407.5,124.5C 407.878,122.079 408.545,119.746 409.5,117.5 Z"/></g>
<g><path style="opacity:1" fill="#120e1d" d="M 310.5,115.5 C 313.247,115.187 315.914,115.52 318.5,116.5C 316.657,116.755 314.657,116.922 312.5,117C 311.643,117.689 310.977,118.522 310.5,119.5C 312.91,121.125 315.577,122.458 318.5,123.5C 319.847,129.968 317.18,132.134 310.5,130C 309.692,129.692 309.025,129.192 308.5,128.5C 311.319,128.258 314.319,128.258 317.5,128.5C 317.67,127.178 317.337,126.011 316.5,125C 313.692,124.402 311.192,123.235 309,121.5C 308.252,119.16 308.752,117.16 310.5,115.5 Z"/></g>
<g><path style="opacity:1" fill="#120e1d" d="M 344.5,115.5 C 347.247,115.187 349.914,115.52 352.5,116.5C 350.657,116.755 348.657,116.922 346.5,117C 345.643,117.689 344.977,118.522 344.5,119.5C 346.91,121.125 349.577,122.458 352.5,123.5C 353.847,129.968 351.18,132.134 344.5,130C 343.692,129.692 343.025,129.192 342.5,128.5C 345.319,128.258 348.319,128.258 351.5,128.5C 351.67,127.178 351.337,126.011 350.5,125C 347.692,124.402 345.192,123.235 343,121.5C 342.252,119.16 342.752,117.16 344.5,115.5 Z"/></g>
<g><path style="opacity:1" fill="#13101f" d="M 375.5,115.5 C 384.867,113.728 388.7,117.394 387,126.5C 384.442,130.212 380.942,131.378 376.5,130C 370.205,125.663 369.872,120.829 375.5,115.5 Z"/></g>
<g><path style="opacity:1" fill="#7063e6" d="M 376.5,117.5 C 384.489,116.317 387.156,119.484 384.5,127C 374.837,129.834 372.17,126.668 376.5,117.5 Z"/></g>
<g><path style="opacity:1" fill="#0f0c19" d="M 421.5,115.5 C 424.247,115.187 426.914,115.52 429.5,116.5C 427.657,116.755 425.657,116.922 423.5,117C 421.408,117.953 421.075,119.286 422.5,121C 425.22,121.797 427.72,122.963 430,124.5C 430.686,128.87 428.686,130.87 424,130.5C 422.564,130.441 421.231,130.108 420,129.5C 419.333,128.833 419.333,128.167 420,127.5C 421.231,128.108 422.564,128.441 424,128.5C 425.973,128.691 427.473,128.024 428.5,126.5C 425.772,124.747 422.939,123.08 420,121.5C 419.252,119.16 419.752,117.16 421.5,115.5 Z"/></g>
</svg>
